<?xml version="1.0" standalone="no"?>
<!DOCTYPE svg PUBLIC "-//W3C//DTD SVG 20010904//EN"
 "http://www.w3.org/TR/2001/REC-SVG-20010904/DTD/svg10.dtd">
<svg version="1.0" xmlns="http://www.w3.org/2000/svg"
 width="200.000000pt" height="200.000000pt" viewBox="0 0 200.000000 200.000000"
 preserveAspectRatio="xMidYMid meet">

<g transform="translate(0.000000,200.000000) scale(0.100000,-0.100000)"
fill="#000000" stroke="none">
<path d="M827 1984 c-409 -74 -718 -379 -809 -799 -7 -34 -12 -119 -12 -195 2
-203 49 -361 157 -529 86 -133 239 -271 375 -340 l43 -22 35 78 c20 42 37 80
40 84 2 4 -24 23 -58 41 -84 44 -232 191 -286 283 -23 39 -56 113 -74 165 -31
90 -32 103 -33 240 0 121 4 158 23 223 89 310 346 534 658 578 102 14 132 26
149 60 39 74 -11 150 -97 148 -18 0 -68 -7 -111 -15z"/>
</g>
</svg>
