<?xml version="1.0" standalone="no"?>
<!DOCTYPE svg PUBLIC "-//W3C//DTD SVG 20010904//EN"
 "http://www.w3.org/TR/2001/REC-SVG-20010904/DTD/svg10.dtd">
<svg version="1.0" xmlns="http://www.w3.org/2000/svg"
 width="1200.000000pt" height="815.000000pt" viewBox="0 0 1200.000000 815.000000"
 preserveAspectRatio="xMidYMid meet">

<g transform="translate(0.000000,815.000000) scale(0.100000,-0.100000)"
fill="#000000" stroke="none">
<path d="M5275 7740 c-3 -5 -1 -10 4 -10 6 0 11 5 11 10 0 6 -2 10 -4 10 -3 0
-8 -4 -11 -10z"/>
<path d="M5312 7710 c-40 -10 -79 -23 -86 -29 -8 -6 -22 -8 -31 -4 -14 5 -16
3 -10 -7 6 -10 4 -12 -9 -7 -9 4 -15 3 -12 -1 3 -5 -24 -36 -60 -70 -66 -64
-80 -92 -44 -89 11 1 20 4 20 8 0 3 14 23 30 44 30 38 43 27 20 -16 -6 -10 -7
-19 -2 -19 5 0 15 14 22 30 35 84 104 123 220 123 65 0 71 1 43 10 -35 11 -44
27 -15 27 9 0 35 -5 57 -12 22 -6 46 -10 54 -9 9 2 12 -3 7 -15 -4 -10 -1 -21
6 -26 10 -6 10 -10 -2 -18 -9 -6 -18 -6 -24 0 -16 16 -153 12 -173 -5 -97 -83
-149 -132 -152 -145 -2 -8 -7 -24 -11 -35 -4 -11 -9 -24 -11 -30 -7 -20 -62
-63 -75 -58 -8 3 -14 0 -14 -6 0 -6 -4 -11 -10 -11 -17 0 -11 20 8 26 41 14
62 29 62 46 0 10 7 21 15 24 8 4 15 12 15 20 0 8 -7 14 -15 14 -8 0 -15 8 -16
18 0 9 -9 -2 -20 -25 -14 -31 -26 -43 -49 -48 -16 -4 -35 -14 -40 -23 -8 -13
-9 -6 -4 23 8 51 10 54 33 48 12 -3 21 2 25 14 5 13 4 15 -4 7 -13 -13 -53 -7
-45 6 3 5 -4 6 -16 3 -19 -5 -20 -3 -11 14 10 17 88 91 147 138 19 15 19 16
-5 4 -27 -13 -113 -79 -118 -91 -2 -5 -19 -24 -37 -43 -23 -23 -40 -33 -52
-29 -14 4 -15 4 -4 -4 10 -7 11 -14 2 -31 -7 -11 -16 -21 -21 -21 -6 0 -10 -5
-10 -10 0 -6 -12 -28 -26 -50 -14 -21 -23 -44 -19 -50 3 -6 1 -9 -6 -8 -7 2
-14 -6 -15 -17 -3 -43 -44 -90 -44 -50 0 9 -6 12 -15 9 -20 -8 -19 1 11 85 14
40 24 74 21 77 -8 8 -33 -40 -45 -86 -22 -88 -23 -117 -7 -130 10 -8 15 -9 15
-1 0 6 -4 11 -10 11 -5 0 -10 4 -10 9 0 5 15 5 35 -1 19 -6 32 -15 29 -20 -3
-5 -12 -7 -20 -4 -15 6 -30 -34 -21 -56 3 -7 6 -1 6 15 1 33 26 37 35 5 8 -32
8 -35 -9 -51 -11 -12 -12 -25 -6 -58 5 -24 9 -38 10 -31 1 15 21 6 21 -9 0 -6
-4 -7 -10 -4 -5 3 -10 1 -10 -5 0 -7 -7 -5 -16 5 -10 10 -14 24 -10 40 3 13 2
27 -4 30 -5 3 -10 -1 -10 -10 0 -8 -6 -18 -14 -21 -8 -3 -12 -13 -9 -25 4 -15
0 -22 -16 -26 -28 -7 -22 -24 12 -41 26 -13 39 -52 17 -52 -5 0 -10 5 -10 11
0 5 -4 7 -10 4 -5 -3 -8 0 -5 7 4 9 -4 13 -24 14 -21 1 -28 -3 -24 -12 3 -8 9
-14 14 -14 5 0 9 -7 9 -15 0 -8 5 -15 10 -15 6 0 10 -4 10 -10 0 -5 -22 -10
-48 -10 -38 0 -56 6 -78 25 -16 14 -33 25 -39 25 -5 -1 3 -12 20 -25 l29 -24
-24 -9 -24 -9 30 -7 c36 -8 94 -38 94 -48 0 -12 -38 -10 -45 2 -3 6 -13 10
-22 10 -13 0 -13 -3 -2 -16 11 -13 9 -14 -13 -9 -29 7 -72 -10 -63 -26 4 -5
-1 -9 -9 -9 -9 0 -16 5 -16 11 0 8 -5 8 -15 -1 -12 -10 -18 -10 -30 0 -8 7
-15 9 -15 5 0 -4 -7 -2 -15 5 -12 10 -15 9 -15 -5 0 -14 -6 -16 -30 -13 -16 3
-30 1 -30 -4 0 -11 36 -17 98 -15 28 0 58 -5 64 -11 9 -9 6 -12 -14 -12 -15 0
-29 6 -31 13 -4 10 -6 10 -6 0 -1 -7 -7 -13 -14 -13 -14 0 -57 -52 -57 -70 0
-5 -5 -10 -11 -10 -11 0 -39 -25 -39 -35 0 -3 -9 -15 -20 -27 -22 -24 -26 -18
-33 42 -3 19 -3 7 -2 -27 2 -46 -2 -69 -16 -93 -11 -17 -19 -36 -19 -43 0 -7
-11 -21 -25 -31 -14 -10 -25 -23 -25 -29 0 -18 -63 -147 -71 -147 -5 0 -9 -5
-9 -10 0 -6 -11 -28 -25 -50 -14 -22 -25 -47 -25 -56 0 -9 -6 -22 -14 -28 -7
-6 -23 -45 -36 -86 -12 -41 -24 -82 -27 -90 -30 -98 -56 -407 -31 -367 4 7 9
-33 10 -88 1 -88 3 -116 7 -147 1 -6 74 17 89 27 5 4 13 50 19 105 2 30 9 73
15 95 5 22 9 49 9 60 -1 19 30 105 55 154 7 13 10 30 7 37 -3 8 0 14 5 14 6 0
14 10 18 23 3 12 13 30 22 40 13 15 13 17 0 17 -8 0 -24 -18 -37 -40 -20 -36
-41 -52 -41 -32 0 8 30 54 40 62 8 6 30 46 30 55 0 3 -4 3 -10 0 -5 -3 -10 0
-10 9 0 8 4 16 10 18 13 4 23 88 10 88 -5 0 -10 -4 -10 -10 0 -5 -5 -10 -10
-10 -6 0 1 18 14 39 14 21 22 42 19 45 -4 3 -1 6 5 6 6 0 14 16 18 36 4 19 13
38 20 41 8 3 14 15 14 28 0 77 237 388 375 493 17 12 41 31 55 42 89 69 137
100 151 100 10 0 19 5 21 11 5 14 81 19 91 5 5 -8 12 -5 22 8 11 14 20 17 42
10 15 -4 33 -8 38 -9 32 -4 55 -19 55 -36 0 -10 4 -19 9 -19 5 0 7 8 4 19 -7
27 14 35 29 11 15 -24 28 -26 28 -5 0 19 2 19 45 -6 43 -25 64 -15 45 21 -14
26 -8 37 9 16 7 -8 19 -12 26 -10 8 3 20 -4 27 -15 17 -27 28 -27 28 2 l1 22
12 -23 c15 -26 62 -54 86 -50 12 2 15 -4 13 -24 -3 -26 -1 -28 30 -28 29 -1
36 -6 54 -43 13 -26 29 -42 40 -43 11 -1 25 -2 32 -3 18 -2 51 -61 45 -79 -12
-30 22 -6 36 26 18 40 28 40 36 3 7 -31 31 -48 38 -28 2 7 7 -7 11 -30 8 -44
26 -60 26 -23 0 11 5 20 10 20 6 0 10 -14 10 -31 0 -16 5 -50 11 -75 11 -43
13 -44 50 -44 30 0 39 4 40 18 0 9 7 1 14 -18 18 -48 18 -50 -7 -51 -21 -1
-20 -2 5 -11 20 -7 27 -16 27 -36 -1 -32 -15 -52 -55 -72 -37 -19 -55 -78 -30
-96 16 -12 15 -14 -4 -35 -25 -27 -26 -38 -6 -45 9 -4 13 -15 11 -30 -4 -20 0
-24 18 -24 14 0 28 -10 36 -25 8 -15 22 -25 36 -25 32 0 38 -16 36 -81 -2 -51
0 -57 20 -62 30 -8 16 -20 -22 -19 -20 0 -30 -4 -30 -14 0 -8 -5 -14 -11 -14
-5 0 -7 -5 -4 -10 3 -6 -1 -13 -10 -16 -9 -4 -14 -13 -11 -21 7 -18 -28 -53
-56 -55 -13 0 -28 -2 -33 -2 -6 -1 -28 -11 -48 -24 -31 -18 -42 -20 -59 -11
-16 8 -22 8 -29 -2 -6 -11 -9 -10 -14 3 -6 16 -9 15 -28 -2 -11 -11 -24 -20
-28 -20 -4 0 -9 -9 -12 -19 -3 -11 -20 -29 -38 -40 -33 -20 -33 -20 -51 -1
-10 11 -18 26 -18 35 0 19 -5 19 -35 -1 -37 -24 -62 -11 -61 33 1 21 -4 38
-11 40 -19 7 -27 -25 -13 -52 7 -13 9 -28 6 -34 -4 -6 0 -11 8 -11 19 0 21
-16 4 -26 -8 -5 -6 -11 6 -20 10 -7 13 -15 7 -18 -5 -4 -8 -20 -6 -37 3 -24 0
-32 -15 -36 -11 -3 -20 -9 -20 -14 0 -5 11 -7 25 -3 15 4 25 2 25 -5 0 -6 -5
-11 -11 -11 -5 0 -9 -8 -7 -18 2 -11 -3 -26 -11 -35 -9 -12 -10 -17 -2 -17 7
0 9 -5 6 -11 -4 -5 0 -18 9 -28 16 -17 16 -19 0 -25 -9 -3 -14 -12 -10 -21 4
-12 -6 -15 -57 -15 -58 0 -161 21 -175 35 -4 3 0 10 8 15 13 8 13 10 -2 10
-19 0 -13 40 6 40 6 0 3 5 -6 11 -21 12 -24 29 -5 29 19 0 49 35 40 45 -5 4
-1 6 9 2 21 -8 37 61 16 75 -9 6 -6 7 10 3 13 -4 22 -2 22 4 0 6 -4 11 -10 11
-5 0 -10 9 -10 20 0 11 -7 20 -15 20 -21 0 -57 60 -52 88 4 23 -17 32 -26 10
-4 -10 -6 -10 -6 0 -1 6 -9 12 -19 12 -11 0 -24 11 -30 25 -13 28 -35 35 -25
8 4 -12 -3 -9 -22 10 -36 35 -42 34 -38 -5 3 -29 2 -30 -7 -10 -9 20 -21 27
-44 23 -4 -1 -14 4 -22 10 -12 10 -13 8 -8 -7 6 -17 4 -16 -18 4 -25 23 -44
30 -33 12 3 -5 1 -10 -6 -10 -8 0 -8 -5 2 -16 9 -12 3 -10 -21 5 -38 23 -55
27 -45 11 9 -15 -13 -12 -41 6 -22 15 -24 15 -18 0 5 -12 0 -16 -20 -16 -14 0
-26 -4 -26 -9 0 -5 -10 -7 -22 -4 -18 4 -20 2 -8 -6 8 -5 11 -13 7 -17 -4 -4
-13 -2 -19 4 -7 7 -43 12 -93 11 l-80 -1 50 -12 c31 -7 45 -14 38 -19 -7 -5
-18 -5 -25 -1 -7 4 -8 3 -4 -4 5 -8 -2 -10 -22 -6 -41 8 -49 -12 -9 -22 l32
-8 -38 -3 c-26 -3 -45 1 -56 11 -15 14 -35 14 -81 0 -13 -5 -13 -6 0 -14 11
-7 8 -10 -15 -11 -26 0 -27 -2 -10 -9 19 -8 19 -9 -2 -9 -13 -1 -23 -7 -23
-13 0 -7 -3 -23 -6 -35 -6 -20 -3 -23 22 -22 29 1 29 1 4 9 -18 5 -9 7 33 8
33 0 61 3 65 6 3 3 -18 6 -46 6 -29 0 -52 4 -52 8 0 5 16 16 36 25 19 10 33
13 29 7 -4 -6 5 -7 25 -4 24 5 29 3 25 -8 -6 -16 20 -56 31 -46 4 4 1 14 -6
23 -19 23 1 18 45 -12 26 -17 40 -22 43 -14 3 8 15 5 40 -11 35 -20 36 -20 19
-2 -29 34 -14 36 66 8 9 -4 17 -12 17 -20 0 -7 9 -18 21 -24 16 -9 19 -19 16
-45 -3 -20 0 -36 7 -39 6 -2 -4 -5 -21 -5 -18 -1 -33 -5 -33 -10 0 -5 -74 -7
-178 -4 -177 6 -486 -11 -513 -28 -24 -14 -30 -161 -13 -344 26 -294 59 -373
174 -421 19 -9 89 -27 155 -40 66 -14 123 -31 127 -37 6 -9 8 -8 8 1 0 7 5 10
10 7 6 -4 8 -11 5 -16 -4 -5 0 -9 7 -9 39 0 202 -30 210 -38 5 -5 11 -27 12
-48 1 -22 5 -45 9 -52 13 -19 -1 -34 -22 -22 -23 12 -35 2 -20 -17 9 -10 7
-13 -8 -13 -11 0 -26 -12 -34 -27 -8 -16 -20 -32 -26 -36 -7 -4 -13 -14 -13
-21 0 -7 -9 -21 -19 -30 -24 -22 -36 -65 -22 -79 16 -16 13 -30 -4 -23 -13 5
-20 -5 -16 -27 1 -8 -7 -12 -53 -22 -18 -4 -25 -9 -19 -13 8 -5 9 -12 2 -22
-8 -11 -12 -12 -16 -3 -3 10 -8 10 -19 -1 -19 -19 -18 -32 1 -16 31 26 13 -7
-22 -40 -21 -20 -34 -27 -30 -17 14 35 17 51 6 30 -13 -24 -29 -31 -29 -12 0
8 -5 8 -15 -1 -8 -7 -15 -17 -15 -22 0 -6 7 -5 15 2 19 16 19 11 -1 -28 -8
-18 -21 -32 -27 -32 -7 0 -6 -4 3 -10 11 -7 12 -14 3 -32 -18 -37 -23 -70 -12
-89 6 -11 6 -20 -1 -24 -6 -4 -2 -15 10 -27 11 -12 20 -26 20 -30 0 -5 5 -6
10 -3 12 8 12 7 1 -31 -8 -28 -7 -31 9 -27 12 3 19 -3 23 -19 10 -35 8 -78 -3
-78 -5 0 -7 7 -4 15 4 8 1 15 -5 15 -11 0 -16 -16 -11 -35 2 -5 2 -19 2 -30
-1 -15 5 -21 21 -22 16 -2 18 0 8 6 -12 8 -11 16 6 52 18 39 20 41 21 16 0
-15 -4 -29 -8 -32 -4 -2 -5 -16 -3 -30 l5 -25 22 32 c11 17 28 34 36 36 11 4
10 1 -3 -12 -9 -10 -17 -28 -17 -41 0 -13 -4 -25 -9 -27 -14 -5 -25 -51 -11
-46 6 2 12 8 12 13 1 6 15 16 32 23 30 14 30 14 9 23 -13 4 -23 11 -23 14 0 4
4 3 10 0 5 -3 18 -1 27 4 16 9 15 10 -5 11 -21 0 -22 2 -8 15 8 8 19 15 25 15
6 0 11 7 11 15 0 8 7 15 15 15 8 0 15 7 15 15 0 8 -8 15 -17 15 -13 0 -11 6
11 29 16 17 26 36 23 44 -4 11 9 17 56 25 56 9 64 9 78 -8 15 -18 63 -34 129
-45 14 -2 39 -11 55 -19 17 -9 36 -16 44 -16 8 0 22 -6 30 -14 21 -17 98 -29
106 -16 4 6 11 7 17 4 6 -4 5 -10 -3 -15 -11 -7 -10 -9 4 -9 9 0 17 -8 18 -17
0 -10 3 -13 5 -6 7 16 34 5 34 -13 0 -13 -12 -18 -32 -15 -5 0 -8 -6 -8 -15 0
-13 -8 -15 -40 -12 -29 2 -39 0 -36 -9 3 -6 0 -14 -7 -16 -19 -6 11 -37 37
-38 19 -1 18 -2 -4 -9 -17 -5 -19 -8 -7 -9 9 -1 17 -8 17 -17 0 -9 9 -18 20
-21 25 -7 25 -15 1 -37 -12 -11 -21 -14 -26 -7 -9 16 -25 13 -25 -4 0 -8 -7
-15 -16 -15 -9 0 -14 -6 -11 -12 2 -7 12 -12 22 -11 10 1 27 -10 38 -23 11
-15 26 -23 34 -20 25 10 51 -11 46 -37 -3 -13 3 -33 15 -47 l19 -24 26 21 c15
11 23 23 20 27 -3 3 -1 6 5 6 7 0 12 -15 12 -34 0 -39 9 -48 68 -65 40 -11 56
-34 30 -44 -7 -3 1 -6 17 -7 27 -1 28 -2 13 -14 -10 -7 -15 -15 -13 -18 11
-11 -25 -31 -37 -20 -17 13 -61 -4 -55 -20 2 -7 11 -12 19 -10 18 3 32 -31 37
-85 1 -7 11 -13 22 -13 18 0 19 -2 9 -15 -7 -8 -17 -12 -24 -8 -6 4 -17 8 -24
9 -18 3 -58 -37 -54 -53 3 -15 -17 -17 -37 -4 -10 7 -6 14 18 32 17 12 31 29
31 36 0 7 4 13 8 13 4 0 12 13 18 28 10 27 9 30 -19 40 -36 14 -47 8 -47 -22
0 -27 -19 -87 -32 -101 -6 -6 -7 3 -4 25 6 34 5 34 -8 11 -7 -13 -11 -33 -8
-45 5 -18 3 -19 -10 -8 -11 9 -18 10 -23 2 -3 -5 -11 -10 -18 -10 -8 0 -8 3 1
12 7 7 12 21 12 33 0 16 -2 17 -9 6 -12 -19 -38 -22 -83 -10 -32 8 -40 7 -58
-11 -11 -11 -16 -20 -10 -20 6 0 10 -7 10 -16 0 -9 -5 -12 -12 -8 -7 4 -8 3
-4 -5 10 -16 26 -4 27 22 0 12 3 16 6 9 2 -6 9 -10 14 -6 13 8 11 -20 -3 -34
-6 -6 -9 -15 -5 -19 4 -3 14 2 21 13 12 16 12 11 0 -36 -8 -30 -21 -61 -30
-70 -15 -14 -15 -13 -6 5 9 17 7 20 -14 20 -14 0 -22 -5 -20 -12 3 -6 -2 -17
-10 -23 -12 -10 -14 -7 -15 21 l-1 34 -10 -35 c-9 -30 -11 -32 -18 -15 -4 11
-5 26 -3 33 4 8 0 10 -11 6 -9 -4 -16 -14 -14 -23 1 -9 -5 -27 -15 -41 -23
-33 -22 -40 8 -40 14 0 25 -4 25 -10 0 -5 9 -10 21 -10 15 0 19 -5 15 -15 -3
-9 0 -15 10 -15 10 0 14 6 11 14 -4 11 -1 11 18 2 22 -10 23 -12 7 -30 -16
-18 -16 -18 16 -11 23 5 40 2 57 -9 26 -17 34 -9 13 13 -11 10 -8 10 15 0 15
-7 24 -15 19 -18 -13 -9 -22 -41 -12 -41 6 0 10 -4 10 -10 0 -18 -19 -10 -25
11 -5 14 -13 19 -26 16 -10 -3 -19 -1 -19 4 0 5 -7 9 -15 9 -8 0 -15 -7 -15
-15 0 -8 -8 -14 -17 -13 -10 1 -31 0 -48 -1 -22 -1 -26 -4 -16 -10 11 -7 7
-12 -15 -24 l-29 -16 44 2 c30 1 45 -2 49 -12 3 -10 -2 -12 -22 -7 -14 3 -35
2 -46 -4 -14 -7 -20 -7 -20 0 0 12 -37 13 -44 1 -3 -5 5 -12 19 -15 14 -4 25
-11 25 -16 0 -6 10 -10 23 -11 13 -1 1 -8 -33 -20 -58 -20 -54 -20 55 -2 21 3
26 2 17 -5 -21 -14 33 -25 58 -12 14 7 20 7 20 0 0 -5 15 -11 33 -11 23 -1 26
-3 10 -6 -28 -5 -30 -33 -3 -33 25 0 26 -12 2 -27 -27 -16 -72 -5 -72 18 0 11
5 19 10 19 6 0 10 4 10 8 0 4 -15 9 -32 10 -18 1 -42 3 -53 4 -12 2 -20 -3
-20 -12 0 -10 9 -15 25 -14 14 1 17 -1 8 -3 -28 -7 -21 -26 7 -21 19 4 23 2
15 -7 -8 -10 -2 -14 24 -19 19 -4 39 -13 46 -21 7 -8 19 -15 28 -15 8 0 12 -3
9 -6 -4 -4 -19 -2 -34 4 -40 16 -70 19 -69 7 0 -11 61 -35 89 -35 9 0 17 -4
17 -9 0 -5 17 -13 38 -18 27 -7 36 -14 34 -26 -2 -11 4 -17 18 -17 11 0 20 -5
20 -11 0 -6 7 -9 15 -5 8 3 15 1 15 -4 0 -6 15 -10 33 -10 18 0 37 -4 43 -9
30 -30 394 -46 394 -17 0 5 3 6 7 3 3 -4 -1 -15 -10 -24 -8 -10 -17 -38 -19
-63 l-3 -45 -70 -10 c-39 -6 -63 -14 -55 -18 8 -3 3 -4 -13 0 -15 3 -33 1 -40
-4 -17 -14 -283 -16 -397 -3 -303 33 -519 141 -759 381 -62 62 -81 89 -81 119
0 12 -7 20 -17 20 -22 0 -73 104 -79 159 -7 69 -4 236 5 271 18 65 23 80 31
80 22 0 17 43 -14 114 -19 43 -38 82 -43 87 -5 5 -47 -6 -101 -27 -77 -30 -98
-43 -133 -84 -44 -51 -76 -65 -209 -89 -77 -14 -178 -59 -234 -104 -64 -52
-85 -62 -186 -96 -52 -18 -149 -59 -216 -92 -66 -32 -126 -59 -132 -59 -7 0
-20 -4 -30 -9 -9 -5 -53 -22 -97 -37 -44 -15 -91 -35 -105 -44 -14 -10 -36
-21 -50 -25 -63 -19 -210 -102 -240 -134 -18 -21 -116 -96 -148 -114 -21 -12
-54 -34 -73 -49 -19 -15 -63 -49 -99 -75 -36 -27 -71 -60 -78 -75 -8 -17 -24
-29 -43 -33 -37 -8 -71 -25 -90 -45 -19 -20 -81 -159 -75 -169 3 -4 1 -21 -4
-37 l-8 -29 -2 30 c-1 25 -5 20 -26 -35 -14 -36 -26 -70 -28 -77 -1 -7 -9 -20
-18 -30 -29 -32 -139 -257 -134 -276 2 -9 0 -15 -5 -12 -9 6 -55 -88 -83 -170
-10 -27 -22 -58 -27 -67 -5 -10 -9 -28 -9 -41 0 -13 -4 -27 -9 -33 -4 -5 -18
-47 -30 -94 -12 -47 -27 -98 -34 -114 -6 -17 -10 -40 -9 -53 1 -13 -2 -23 -7
-23 -5 0 -14 -21 -20 -48 -7 -26 -15 -56 -18 -67 -5 -17 -4 -18 9 -7 13 10 15
6 12 -31 -2 -23 -8 -64 -13 -92 -5 -27 -10 -73 -10 -102 -1 -54 -8 -83 -21
-83 -9 0 -5 172 5 219 6 25 5 32 -3 27 -7 -4 -12 -15 -12 -25 0 -9 -17 -53
-39 -96 -24 -51 -41 -100 -44 -135 -3 -30 -9 -69 -13 -87 l-6 -32 231 -1 c195
0 231 2 231 14 0 8 5 18 11 22 8 4 9 0 4 -15 l-6 -21 464 0 463 0 15 62 c13
59 16 63 47 69 19 4 178 10 354 14 260 5 323 4 329 -7 8 -11 11 -11 18 0 6 11
44 13 172 12 90 -1 400 0 689 3 289 3 494 2 455 -2 -53 -5 -63 -8 -40 -12 26
-5 25 -6 -15 -9 l-45 -3 45 -6 45 -7 -45 -11 c-43 -10 -40 -11 52 -12 l97 -1
-6 34 c-5 31 -3 33 27 40 37 7 145 6 117 -1 -11 -3 -16 -11 -13 -19 3 -8 0
-14 -7 -14 -8 0 -8 -3 2 -9 11 -7 11 -9 0 -14 -8 -3 24 -5 71 -5 47 0 77 2 67
5 -14 4 -16 8 -6 19 9 12 5 14 -24 14 -28 0 -35 4 -31 14 3 8 11 13 18 10 7
-3 25 0 41 6 21 8 30 8 35 -1 6 -8 9 -8 14 0 4 6 12 8 18 5 6 -4 5 -10 -3 -15
-8 -5 -9 -9 -3 -9 6 0 17 7 24 15 8 10 29 15 64 14 28 -1 43 -3 34 -6 -10 -2
-18 -9 -18 -14 0 -14 26 -11 40 6 18 22 30 18 30 -10 0 -14 6 -25 14 -25 9 0
12 8 9 24 -6 31 1 33 165 42 110 5 132 4 130 -7 -2 -8 -10 -17 -18 -21 -10 -5
-7 -7 10 -8 l25 -2 -29 -12 c-25 -11 -15 -12 75 -8 57 2 120 8 139 13 33 8 33
8 -12 6 -50 -2 -66 13 -26 25 l23 6 -25 1 c-14 1 -20 5 -15 9 11 10 156 33
195 31 l25 -1 -25 -8 -25 -8 25 -2 25 -1 -25 -10 c-19 -8 -21 -12 -10 -19 10
-6 5 -11 -21 -19 -28 -9 -19 -9 47 -5 44 3 96 9 115 14 l34 8 -35 1 c-35 1
-33 14 5 25 11 3 6 4 -12 2 -18 -1 -30 1 -27 5 2 4 -2 9 -8 12 -7 3 -4 5 7 6
11 0 54 5 95 10 41 6 111 12 155 15 l80 5 -50 -13 c-27 -8 -44 -15 -37 -15 7
-1 10 -5 7 -11 -3 -5 0 -10 7 -11 7 -1 2 -5 -12 -9 -18 -6 -3 -8 49 -9 65 -1
72 1 61 14 -16 20 -8 28 29 29 16 1 27 5 24 10 -3 4 -21 6 -39 3 -24 -4 -34
-2 -34 7 0 9 22 15 63 20 34 3 118 13 187 22 214 26 295 32 298 23 2 -5 11 -9
20 -10 28 -1 -19 -18 -48 -17 -23 0 -22 1 5 8 28 7 27 8 -12 9 -24 0 -43 -3
-43 -9 0 -5 6 -10 12 -10 16 0 -21 -26 -47 -33 -15 -4 -14 -5 8 -6 15 0 27 2
27 7 0 4 62 7 138 8 76 0 147 4 158 9 24 10 29 10 214 24 85 6 193 15 240 21
78 9 482 33 575 34 43 1 40 7 65 -124 5 -30 18 -93 28 -140 l18 -85 1192 -3
1191 -2 -45 127 c-25 71 -58 166 -74 213 -75 222 -171 454 -271 655 -93 185
-206 386 -229 405 -3 3 -32 43 -65 90 -115 168 -209 300 -271 381 -47 63 -174
266 -174 279 0 5 -10 15 -22 21 -13 7 -39 27 -58 45 -196 184 -253 225 -335
244 -45 11 -207 74 -312 122 -100 46 -334 122 -483 158 -52 12 -113 33 -136
46 -24 13 -49 21 -62 17 -11 -3 -72 11 -134 30 -62 20 -147 45 -188 57 -41 12
-104 32 -140 44 -36 13 -90 26 -120 30 -30 4 -95 24 -145 45 -49 21 -113 44
-142 50 -29 7 -62 21 -74 32 -15 13 -37 19 -69 19 -44 0 -109 16 -120 29 -3 4
-24 15 -48 25 -41 18 -42 20 -36 55 3 20 12 50 20 68 8 17 19 51 24 75 5 24
14 63 20 88 6 25 13 61 15 80 2 19 9 55 16 80 6 25 14 70 16 100 6 60 13 70
56 70 20 0 32 8 45 30 9 16 20 30 25 30 4 0 7 5 7 12 0 7 11 21 24 33 21 17
27 36 40 128 9 59 16 125 16 146 0 22 4 41 9 43 6 2 6 75 1 188 -5 110 -5 189
1 194 5 6 9 27 9 48 0 21 5 38 10 38 6 0 8 17 4 43 -10 69 -22 100 -54 134
-36 38 -38 65 -8 78 13 6 24 19 26 30 2 11 11 28 19 37 12 13 14 31 10 70 -3
29 -3 45 0 36 5 -21 23 -24 23 -5 5 133 16 222 35 282 20 60 22 77 13 125 -10
57 -19 488 -10 504 2 4 8 2 13 -5 5 -9 8 14 7 56 -1 39 -3 55 -5 37 -3 -19 -9
-30 -15 -26 -6 4 -8 -1 -3 -16 5 -16 4 -20 -4 -15 -7 4 -11 14 -10 23 3 33 -1
42 -38 79 -21 20 -32 34 -25 29 22 -14 12 10 -24 58 -21 25 -34 49 -31 52 3 4
33 -19 66 -51 42 -40 58 -50 54 -35 -9 33 -73 94 -127 120 -55 28 -61 36 -47
72 9 23 7 25 -10 21 -13 -4 -19 0 -19 12 0 13 6 16 25 13 14 -3 28 -1 31 3 3
5 -3 9 -13 9 -15 1 -14 4 7 22 l25 21 -24 -8 c-16 -5 -21 -4 -17 4 4 6 14 11
22 11 8 0 14 5 14 11 0 7 -8 9 -22 4 -13 -4 -31 -7 -41 -6 -10 0 -31 -13 -48
-30 -32 -31 -62 -41 -38 -13 11 14 10 18 -6 30 -16 12 -17 16 -5 27 10 9 12 9
6 0 -4 -8 -1 -13 8 -13 13 0 16 13 16 66 0 37 -5 84 -12 106 -8 26 -8 46 -2
56 5 10 7 37 3 62 -6 42 -6 43 -8 10 -1 -19 -6 -43 -10 -54 -6 -15 -10 -11
-23 25 -9 24 -19 66 -22 94 -3 27 -11 54 -16 59 -6 6 -10 18 -10 28 0 10 -5
18 -11 18 -6 0 -8 -9 -4 -22 15 -52 16 -58 11 -58 -3 0 -26 27 -52 61 -26 34
-70 76 -99 95 -33 21 -55 42 -59 59 -4 14 -11 25 -17 25 -6 0 -6 -6 1 -19 14
-27 13 -31 -7 -24 -29 10 -43 34 -43 75 0 21 -5 38 -11 38 -5 0 -7 -5 -4 -10
8 -13 -22 -43 -34 -36 -5 4 -12 0 -14 -6 -3 -7 -6 1 -6 17 -1 18 -4 25 -9 18
-5 -8 -14 -3 -27 17 -28 42 -125 81 -125 50 0 -5 6 -7 13 -4 7 2 20 -1 29 -8
20 -16 34 -58 19 -58 -6 0 -11 5 -11 10 0 6 -8 10 -19 10 -10 0 -24 6 -30 14
-7 8 -23 17 -36 20 -14 4 -25 14 -25 24 -1 43 -21 165 -29 180 -7 12 -8 3 -4
-28 5 -42 4 -44 -10 -25 -15 18 -15 17 -2 -20 8 -22 14 -49 15 -61 0 -11 5
-25 12 -32 14 -14 0 -16 -21 -3 -8 5 -11 16 -7 26 5 15 4 16 -9 5 -12 -10 -16
-8 -24 11 -9 23 -10 23 -10 2 -1 -19 -7 -21 -51 -21 -52 -1 -56 3 -40 28 6 9
10 11 10 3 0 -7 7 -10 15 -7 8 4 12 11 8 18 -4 6 -6 20 -5 31 2 11 -1 16 -5
10 -4 -5 -15 -16 -24 -23 -15 -11 -16 -6 -17 44 0 37 -6 62 -17 74 -9 10 -12
21 -7 24 12 7 54 -41 69 -79 6 -16 12 -24 12 -17 1 8 6 10 14 6 10 -6 10 -4 0
7 -7 7 -13 23 -13 35 0 19 6 23 38 27 l37 4 -41 1 c-32 2 -47 9 -74 37 -35 37
-67 50 -35 15 15 -16 15 -20 3 -20 -15 0 -48 30 -48 44 0 4 6 4 13 1 6 -4 1 3
-13 14 -47 41 -98 60 -194 76 -98 15 -145 19 -116 8 8 -3 26 -14 39 -25 18
-13 34 -17 55 -13 23 5 27 3 16 -4 -8 -5 -11 -13 -7 -17 4 -4 12 -3 18 3 12
12 79 -7 79 -23 0 -19 -11 -23 -36 -14 -15 6 -24 6 -24 0 0 -6 7 -10 15 -10 8
0 15 -4 15 -10 0 -19 -32 -10 -37 11 -3 12 -11 18 -19 15 -8 -3 -14 1 -14 9 0
17 -16 20 -25 5 -8 -13 -52 -13 -60 1 -4 6 -12 8 -19 6 -6 -2 -24 2 -41 9 -18
8 -23 13 -12 14 9 0 17 5 17 11 0 6 -14 9 -32 8 -18 -2 -64 0 -102 5 -60 7
-74 12 -99 40 -20 21 -46 35 -81 43 -63 15 -56 15 -144 -7z m331 -117 c-7 -2
-19 -2 -25 0 -7 3 -2 5 12 5 14 0 19 -2 13 -5z m-333 -22 c0 -12 -20 -25 -27
-18 -7 7 6 27 18 27 5 0 9 -4 9 -9z m363 -26 c-3 -21 -1 -35 8 -40 8 -5 11 -5
7 -1 -10 12 12 66 27 66 15 0 40 -23 54 -48 11 -21 -12 -61 -24 -41 -4 6 -3
14 2 18 7 4 7 14 0 31 -11 24 -11 22 -15 -19 -3 -40 -5 -43 -28 -38 -13 2 -27
0 -30 -5 -9 -13 -26 2 -20 19 3 8 2 12 -3 9 -11 -7 -35 49 -28 66 2 7 16 14
30 14 23 2 25 -1 20 -31z m124 10 c-14 -15 -27 -10 -27 10 0 8 7 11 19 8 16
-4 17 -8 8 -18z m-403 -10 c-22 -17 -34 -19 -34 -6 0 5 8 12 18 14 32 9 36 7
16 -8z m670 9 c9 -3 16 -14 16 -23 0 -12 -2 -13 -9 -3 -7 11 -9 11 -14 -2 -5
-12 0 -16 18 -16 29 0 33 -21 9 -41 -9 -7 -20 -25 -26 -39 -9 -24 -10 -24 -24
-6 -19 26 -18 32 9 56 l22 21 -28 -10 c-36 -14 -34 -14 -41 5 -8 22 11 44 31
37 12 -5 15 -2 10 10 -7 18 1 21 27 11z m-127 -19 c8 -9 12 -19 9 -22 -4 -4
-16 3 -28 15 -14 13 -17 22 -10 22 8 0 20 -7 29 -15z m-432 -33 c-18 -15 -67
-33 -60 -21 7 10 42 27 60 28 6 1 6 -2 0 -7z m385 4 c0 -3 -4 -8 -10 -11 -5
-3 -10 -1 -10 4 0 6 5 11 10 11 6 0 10 -2 10 -4z m35 -26 c3 -5 -1 -10 -9 -10
-9 0 -16 -5 -16 -12 0 -9 -3 -9 -12 0 -10 10 -10 15 2 22 19 12 27 12 35 0z
m-927 -34 c-7 -11 -13 -24 -14 -28 -1 -5 -3 -11 -4 -15 -1 -5 -2 -12 -1 -16 1
-5 -3 -6 -9 -2 -5 3 -10 -2 -10 -13 0 -10 -9 -27 -20 -37 -13 -12 -17 -22 -11
-28 7 -7 5 -20 -5 -39 -9 -17 -18 -27 -21 -24 -4 3 0 17 7 31 23 43 2 40 -39
-6 -28 -32 -36 -47 -29 -56 7 -9 7 -13 -1 -13 -6 0 -11 -7 -11 -15 0 -8 -4
-15 -10 -15 -12 0 -13 10 0 30 6 9 5 17 -1 21 -7 4 -5 11 4 20 7 8 17 27 21
42 3 15 16 37 27 48 11 11 29 40 39 65 19 44 40 59 40 27 0 -15 2 -14 14 3 13
16 13 19 0 22 -8 2 -14 7 -14 12 0 11 21 18 42 12 15 -3 16 -8 6 -26z m1132
15 c0 -10 -7 -21 -15 -24 -12 -5 -12 -2 -3 18 13 30 18 31 18 6z m-590 -36 c0
-18 6 -36 13 -39 6 -3 3 -5 -8 -3 -16 2 -21 11 -23 46 -2 28 0 41 7 36 6 -3
11 -21 11 -40z m624 13 c7 -53 3 -122 -8 -130 -16 -11 -28 -10 -21 2 3 6 -1
13 -10 16 -10 4 -13 13 -10 25 5 14 2 17 -8 13 -10 -3 -18 2 -22 16 -8 26 -4
32 29 34 21 1 26 6 26 29 0 38 18 34 24 -5z m-384 18 c0 -3 -4 -8 -10 -11 -5
-3 -10 -1 -10 4 0 6 5 11 10 11 6 0 10 -2 10 -4z m58 -34 c2 -12 -1 -22 -7
-22 -6 0 -11 4 -11 9 0 5 -3 17 -7 27 -4 12 -2 15 8 12 8 -2 15 -14 17 -26z
m92 19 c0 -12 -20 -25 -27 -18 -7 7 6 27 18 27 5 0 9 -4 9 -9z m90 -21 c0 -5
-4 -10 -10 -10 -5 0 -10 5 -10 10 0 6 5 10 10 10 6 0 10 -4 10 -10z m-25 -48
c-8 -8 -25 17 -25 38 0 9 6 6 16 -8 9 -13 13 -26 9 -30z m-325 28 c0 -5 -4
-10 -10 -10 -5 0 -10 5 -10 10 0 6 5 10 10 10 6 0 10 -4 10 -10z m-522 -30
c-22 -30 -38 -39 -38 -21 0 9 47 51 57 51 2 0 -6 -13 -19 -30z m311 -13 c1 -5
-3 -5 -9 -2 -5 3 -10 16 -9 28 0 21 1 21 9 2 5 -11 9 -24 9 -28z m622 -19 c11
-21 11 -22 -4 -9 -10 7 -17 17 -17 22 0 15 9 10 21 -13z m-1043 -43 c-11 -20
-22 -34 -24 -32 -9 9 19 67 32 67 10 0 8 -9 -8 -35z m35 7 c-5 -22 -23 -31
-23 -12 0 10 23 40 27 36 1 -1 0 -12 -4 -24z m184 6 c-3 -8 -6 -5 -6 6 -1 11
2 17 5 13 3 -3 4 -12 1 -19z m-284 -5 c-8 -23 -33 -60 -33 -50 0 11 29 67 35
67 2 0 2 -8 -2 -17z m1271 -32 c3 -5 15 -7 26 -4 11 3 20 1 20 -5 0 -14 -28
-23 -36 -11 -4 7 -12 5 -22 -3 -25 -21 -47 -16 -50 10 -3 19 1 22 27 22 16 0
32 -4 35 -9z m-1344 -62 c0 -11 -4 -17 -10 -14 -5 3 -10 -3 -10 -15 0 -12 -4
-18 -10 -15 -5 3 -10 1 -10 -4 0 -6 -10 -11 -22 -11 -22 1 -22 1 -5 14 10 8
19 23 20 35 1 12 7 21 14 21 7 0 13 5 13 11 0 5 5 7 10 4 6 -3 10 -15 10 -26z
m1650 -15 c12 -32 13 -44 1 -44 -5 0 -14 14 -20 31 -13 39 -13 39 -1 39 6 0
15 -12 20 -26z m-257 -12 c-3 -12 -12 -22 -19 -22 -18 0 -18 9 3 32 20 22 24
19 16 -10z m107 -22 c7 -16 19 -30 26 -30 19 0 18 -34 -1 -50 -12 -10 -16 -9
-21 3 -3 9 -12 13 -22 10 -11 -5 -14 -2 -9 10 3 9 2 17 -3 17 -6 0 -10 -5 -10
-12 0 -6 -2 -9 -5 -6 -10 10 8 88 20 88 7 0 18 -13 25 -30z m30 0 c0 -5 -4
-10 -10 -10 -5 0 -10 5 -10 10 0 6 5 10 10 10 6 0 10 -4 10 -10z m-1530 -35
c0 -25 -14 -34 -24 -16 -8 12 3 41 15 41 5 0 9 -11 9 -25z m1617 3 c-3 -8 -6
-5 -6 6 -1 11 2 17 5 13 3 -3 4 -12 1 -19z m-1647 -62 c0 -20 -4 -27 -14 -23
-8 3 -17 1 -19 -6 -3 -7 -4 -2 -4 11 1 12 5 22 10 22 4 0 5 5 2 10 -4 6 -4 18
0 28 5 14 7 14 15 2 6 -8 10 -28 10 -44z m1455 44 c3 -5 1 -10 -4 -10 -6 0
-11 5 -11 10 0 6 2 10 4 10 3 0 8 -4 11 -10z m348 -82 c4 -11 2 -15 -6 -12
-20 7 -37 42 -31 59 5 13 9 12 18 -7 7 -13 15 -31 19 -40z m-113 42 c0 -5 -2
-10 -4 -10 -3 0 -8 5 -11 10 -3 6 -1 10 4 10 6 0 11 -4 11 -10z m-180 -10 c0
-5 -4 -10 -10 -10 -5 0 -10 5 -10 10 0 6 5 10 10 10 6 0 10 -4 10 -10z m33
-10 c9 -11 13 -20 7 -20 -5 0 -14 9 -20 20 -6 11 -9 20 -8 20 2 0 11 -9 21
-20z m361 -35 c4 -14 11 -25 17 -25 6 0 6 7 -1 20 -20 38 12 22 62 -31 61 -64
62 -83 2 -30 -25 22 -51 38 -58 35 -18 -7 -43 18 -50 50 -6 25 -5 28 7 17 8
-6 18 -23 21 -36z m-72 -10 c3 -13 1 -22 -3 -19 -9 5 -13 44 -5 44 2 0 6 -11
8 -25z m-1932 -12 c0 -5 -5 -15 -10 -23 -7 -12 -12 -12 -22 -2 -10 10 -10 15
2 22 18 12 30 13 30 3z m32 -25 c7 -18 -2 -39 -13 -32 -12 7 -12 44 0 44 5 0
11 -6 13 -12z m1978 -14 c0 -8 4 -14 8 -14 10 0 27 -33 37 -68 6 -21 5 -21
-19 -11 -14 7 -27 20 -27 31 -1 10 -3 23 -4 28 -1 6 -3 17 -4 26 0 8 -5 12
-11 9 -5 -3 -10 1 -10 9 0 10 6 13 15 10 8 -4 15 -12 15 -20z m125 -101 c16
-34 16 -64 -1 -107 -5 -14 -4 -17 4 -12 8 5 12 -1 12 -18 0 -14 -4 -26 -10
-26 -5 0 -10 9 -10 19 0 11 -4 22 -9 25 -11 7 -24 78 -23 126 0 25 -2 30 -7
16 -7 -18 -8 -18 -14 -2 -4 10 -7 27 -7 39 0 20 0 20 24 -2 14 -13 32 -39 41
-58z m-2100 17 c3 -5 2 -10 -4 -10 -5 0 -13 5 -16 10 -3 6 -2 10 4 10 5 0 13
-4 16 -10z m-202 -117 c-7 -2 -19 -2 -25 0 -7 3 -2 5 12 5 14 0 19 -2 13 -5z
m2407 -66 c0 -12 -5 -29 -10 -37 -7 -11 -10 -3 -10 28 0 26 4 41 10 37 6 -3
10 -16 10 -28z m29 -92 c0 -16 -4 -37 -9 -45 -9 -13 -11 -13 -20 0 -8 12 -10
11 -10 -6 0 -12 -7 -28 -16 -35 -15 -12 -16 -10 -9 20 4 19 13 48 21 65 l13
31 1 -28 c0 -16 4 -26 9 -23 5 3 7 25 5 49 -3 31 -2 37 5 22 5 -11 10 -33 10
-50z m-1109 -40 c-1 -6 -10 -13 -21 -17 -17 -7 -18 -5 -9 13 11 20 33 23 30 4z
m16 -52 c-3 -10 -8 -30 -12 -45 -7 -30 -44 -40 -44 -13 0 8 4 15 9 15 5 0 14
14 20 30 10 31 36 43 27 13z m1064 -32 c0 -5 -7 -12 -16 -15 -24 -9 -28 -7
-14 9 14 17 30 20 30 6z m109 0 c9 -6 10 -11 2 -15 -6 -4 -11 -2 -11 4 0 6 -4
8 -10 5 -5 -3 -10 -1 -10 4 0 13 10 14 29 2z m56 -221 c3 -5 1 -10 -4 -10 -6
0 -11 5 -11 10 0 6 2 10 4 10 3 0 8 -4 11 -10z m53 -58 c6 -18 -15 -14 -22 4
-4 10 -1 14 6 12 6 -2 14 -10 16 -16z m-1258 -12 c0 -5 -2 -10 -4 -10 -3 0 -8
5 -11 10 -3 6 -1 10 4 10 6 0 11 -4 11 -10z m1317 -192 c-3 -8 -6 -5 -6 6 -1
11 2 17 5 13 3 -3 4 -12 1 -19z m-3141 -255 c-13 -24 -15 -25 -16 -7 0 11 5
25 12 32 19 19 21 6 4 -25z m-156 -27 c0 -8 -4 -18 -10 -21 -5 -3 -10 3 -10
14 0 12 5 21 10 21 6 0 10 -6 10 -14z m710 -66 c18 -12 2 -12 -25 0 -13 6 -15
9 -5 9 8 0 22 -4 30 -9z m2627 -162 c-3 -8 -6 -5 -6 6 -1 11 2 17 5 13 3 -3 4
-12 1 -19z m-2607 -183 c125 -15 257 -42 210 -43 -14 -1 -59 5 -100 13 -64 11
-77 11 -86 0 -6 -8 -28 -16 -50 -17 -57 -5 -150 -54 -206 -109 -28 -27 -54
-49 -60 -49 -5 0 -6 -5 -3 -10 3 -6 17 -7 31 -4 20 5 23 3 18 -12 -4 -13 -3
-15 3 -6 7 9 17 10 35 3 14 -5 38 -8 54 -6 16 2 35 -2 42 -7 7 -7 12 -7 12 -1
0 6 11 8 25 5 17 -3 25 -11 26 -26 0 -11 3 -15 6 -8 7 18 39 33 58 26 11 -5
13 -10 5 -19 -8 -10 -7 -16 4 -22 9 -5 17 -19 18 -33 3 -20 -2 -25 -27 -30
l-30 -6 34 -12 c19 -7 51 -12 72 -12 54 0 58 -17 13 -56 -21 -19 -31 -31 -21
-28 9 3 24 1 31 -5 10 -8 16 -9 21 -1 3 5 17 10 30 10 13 0 26 4 30 10 3 5 12
7 20 4 7 -3 29 1 47 9 18 9 43 18 54 21 19 6 94 73 119 107 6 8 12 30 13 49 2
19 8 49 15 67 9 27 13 30 26 20 12 -10 13 -9 3 10 -7 12 -24 31 -38 42 -15 12
-23 21 -19 21 20 0 78 -56 91 -86 32 -76 4 -227 -70 -379 -86 -178 -131 -199
-431 -199 -276 0 -476 37 -555 102 -62 51 -89 171 -90 388 0 207 32 251 195
273 177 24 265 25 425 6z m-643 -52 c-3 -10 -5 -2 -5 17 0 19 2 27 5 18 2 -10
2 -26 0 -35z m3210 5 c-3 -8 -6 -5 -6 6 -1 11 2 17 5 13 3 -3 4 -12 1 -19z
m-2248 -14 c29 -8 51 -17 49 -19 -2 -2 -32 5 -68 15 -36 10 -58 19 -49 19 8 1
39 -6 68 -15z m1129 -31 c-15 -2 -42 -2 -60 0 -18 2 -6 4 27 4 33 0 48 -2 33
-4z m237 -3 c4 -6 -6 -7 -27 -3 -44 8 -48 13 -10 13 17 0 34 -4 37 -10z m882
-12 c-3 -8 -6 -5 -6 6 -1 11 2 17 5 13 3 -3 4 -12 1 -19z m-1958 -25 c17 -69
22 -129 12 -154 -9 -23 -10 -23 -9 6 0 17 -7 59 -16 95 -18 77 -19 90 -6 90 5
0 13 -17 19 -37z m638 31 c-3 -3 -12 -4 -19 -1 -8 3 -5 6 6 6 11 1 17 -2 13
-5z m-607 -20 c0 -8 -4 -12 -10 -9 -5 3 -10 10 -10 16 0 5 5 9 10 9 6 0 10 -7
10 -16z m553 9 c-7 -2 -19 -2 -25 0 -7 3 -2 5 12 5 14 0 19 -2 13 -5z m264 1
c-3 -3 -12 -4 -19 -1 -8 3 -5 6 6 6 11 1 17 -2 13 -5z m-1531 -19 c-3 -10 1
-18 12 -22 9 -4 20 -11 24 -17 4 -6 8 -1 8 12 0 12 6 22 14 22 16 0 9 -48 -11
-68 -7 -8 -11 -17 -8 -22 6 -9 -42 2 -87 21 -36 15 -35 31 3 63 34 29 54 34
45 11z m1934 5 c11 -8 7 -9 -15 -4 -37 8 -45 14 -19 14 10 0 26 -5 34 -10z
m77 -16 c-3 -3 -12 -4 -19 -1 -8 3 -5 6 6 6 11 1 17 -2 13 -5z m66 -31 c72
-43 82 -69 81 -201 -2 -137 -29 -289 -63 -357 -45 -87 -97 -107 -320 -126
-261 -21 -555 25 -634 99 -34 32 -82 110 -73 119 3 4 6 1 6 -4 0 -22 81 -113
118 -132 20 -10 82 -29 137 -41 84 -19 132 -22 305 -23 208 -1 347 14 333 36
-3 5 -2 7 4 4 6 -4 24 -1 40 5 33 13 83 85 83 121 0 16 -3 18 -9 9 -7 -11 -10
-10 -15 3 -3 9 -6 24 -5 33 0 14 2 13 9 -3 6 -13 9 -15 9 -5 1 13 3 13 10 1
26 -40 61 269 41 361 -10 47 -16 57 -62 91 -61 43 -58 48 5 10z m557 17 c0 -5
-4 -10 -10 -10 -5 0 -10 5 -10 10 0 6 5 10 10 10 6 0 10 -4 10 -10z m-279 -79
c1 -33 2 -34 9 -11 6 18 8 8 8 -38 -1 -58 -2 -62 -18 -47 -9 8 -23 15 -31 15
-12 0 -12 2 0 9 10 6 12 26 9 76 -3 57 -2 64 9 49 7 -10 13 -34 14 -53z m-910
15 c-13 -7 -19 -16 -14 -19 12 -8 23 -67 12 -67 -4 0 -12 14 -18 30 -5 17 -17
30 -25 30 -9 0 -16 4 -16 8 0 12 40 31 65 31 18 0 18 -1 -4 -13z m-439 -23
c-3 -16 -7 -22 -10 -15 -4 13 4 42 11 42 2 0 2 -12 -1 -27z m-529 -3 c3 -11 1
-18 -4 -14 -5 3 -9 12 -9 20 0 20 7 17 13 -6z m1027 16 c0 -3 -4 -8 -10 -11
-5 -3 -10 -1 -10 4 0 6 5 11 10 11 6 0 10 -2 10 -4z m-90 -46 c0 -5 -2 -10 -4
-10 -3 0 -8 5 -11 10 -3 6 -1 10 4 10 6 0 11 -4 11 -10z m-423 -52 c-3 -7 -5
-2 -5 12 0 14 2 19 5 13 2 -7 2 -19 0 -25z m-206 -33 c24 -9 61 -118 69 -200
4 -38 12 -83 18 -98 7 -16 12 -38 12 -49 0 -12 7 -29 15 -38 9 -10 18 -28 20
-40 3 -13 9 -28 15 -34 16 -16 13 -49 -4 -43 -20 8 -28 -4 -15 -19 8 -10 5
-16 -13 -24 -13 -7 -29 -24 -34 -38 -8 -20 -18 -28 -38 -30 -39 -3 -47 -10
-40 -37 5 -20 1 -24 -28 -30 -18 -3 -40 -9 -50 -11 -26 -8 -44 -99 -21 -108 7
-3 13 -16 13 -29 0 -13 5 -28 11 -34 17 -17 -45 -27 -85 -13 -26 8 -34 16 -30
28 4 12 3 14 -3 4 -6 -7 -23 -17 -39 -22 l-29 -8 29 -1 c24 -1 27 -3 16 -16
-7 -8 -16 -12 -21 -9 -5 3 -6 -1 -3 -9 3 -8 -2 -17 -10 -20 -18 -7 -22 -37 -5
-37 5 0 7 -4 4 -10 -4 -6 8 -10 29 -10 38 0 48 -15 18 -25 -11 -3 -24 -16 -30
-30 -10 -22 -8 -24 19 -30 22 -5 28 -11 24 -24 -6 -19 9 -41 45 -65 13 -9 19
-16 12 -16 -6 0 -12 -6 -12 -14 0 -7 -7 -19 -16 -26 -13 -11 -16 -10 -21 8 -3
12 -12 22 -20 22 -11 0 -13 -5 -8 -17 4 -10 7 -26 7 -35 0 -10 3 -18 9 -18 5
0 9 -5 9 -11 0 -28 -31 17 -37 54 -5 34 -8 38 -18 24 -7 -9 -15 -14 -18 -11
-11 11 -79 -28 -85 -48 -3 -13 -11 -18 -23 -15 -24 6 -25 -9 -2 -17 15 -6 15
-8 3 -16 -8 -6 -20 -10 -27 -10 -19 0 -43 29 -43 52 0 12 3 18 7 15 3 -4 12
-2 20 4 10 9 13 8 13 0 0 -8 8 -10 23 -5 25 8 38 24 30 37 -3 5 -9 4 -13 -3
-4 -7 -17 -10 -29 -7 -12 3 -24 1 -27 -4 -3 -5 -14 -9 -24 -9 -10 0 -20 -6
-23 -12 -3 -10 -7 -10 -17 -1 -10 9 -21 8 -51 -8 -21 -10 -45 -19 -54 -19 -9
0 -14 -4 -11 -9 7 -11 -96 8 -111 21 -9 7 -17 7 -27 -1 -7 -6 -21 -9 -29 -5
-9 3 -29 -3 -44 -14 -36 -25 -79 -33 -75 -13 2 8 -1 17 -7 20 -5 4 -12 18 -14
31 -2 14 -8 34 -12 44 -5 11 -3 32 3 49 6 17 9 33 7 36 -3 2 -5 -1 -5 -7 0 -7
-8 -12 -17 -12 -17 1 -17 2 1 15 19 15 99 18 90 4 -3 -5 -14 -9 -24 -9 -11 0
-24 -9 -30 -19 -13 -26 -13 -31 5 -31 8 0 15 6 15 13 0 7 8 13 19 13 11 0 17
-5 14 -13 -3 -8 0 -11 9 -8 10 4 14 19 12 51 -2 32 1 47 12 51 7 3 14 10 14
15 0 6 -7 5 -15 -2 -11 -9 -19 -10 -26 -3 -8 8 0 19 27 37 l39 26 -28 0 c-26
0 -27 1 -13 16 21 20 20 30 -1 39 -16 6 -15 8 5 16 13 5 22 17 22 30 0 12 15
36 33 54 50 51 103 109 111 123 4 7 2 19 -4 27 -10 12 -9 15 7 15 18 0 33 20
47 62 6 20 65 60 77 52 4 -2 19 11 32 31 13 19 46 52 72 73 67 51 156 176 222
310 31 62 67 122 80 132 23 18 57 20 94 5z m1635 -13 c-4 -3 -14 2 -24 12 -16
18 -16 18 6 6 13 -6 21 -14 18 -18z m-1409 -104 c-3 -7 -5 -2 -5 12 0 14 2 19
5 13 2 -7 2 -19 0 -25z m233 -18 c0 -5 -6 -10 -14 -10 -8 0 -18 5 -21 10 -3 6
3 10 14 10 12 0 21 -4 21 -10z m-190 -105 c0 -5 -5 -3 -10 5 -5 8 -10 20 -10
25 0 6 5 3 10 -5 5 -8 10 -19 10 -25z m1137 3 c-3 -7 -5 -2 -5 12 0 14 2 19 5
13 2 -7 2 -19 0 -25z m-100 -10 c-3 -8 -6 -5 -6 6 -1 11 2 17 5 13 3 -3 4 -12
1 -19z m84 -45 c-10 -17 -10 -16 -11 3 0 23 13 41 18 25 2 -6 -1 -18 -7 -28z
m-15 -67 c-4 -18 -13 -39 -21 -46 -19 -16 -19 -10 0 26 8 16 15 38 15 48 0 11
3 17 6 13 4 -3 3 -22 0 -41z m54 -37 c0 -6 -4 -7 -10 -4 -5 3 -10 11 -10 16 0
6 5 7 10 4 6 -3 10 -11 10 -16z m-109 -62 l-23 -22 17 28 c10 15 20 25 23 22
3 -3 -5 -16 -17 -28z m-486 3 c3 -5 -1 -10 -9 -10 -9 0 -16 5 -16 10 0 6 4 10
9 10 6 0 13 -4 16 -10z m425 -49 c-34 -18 -100 -38 -90 -28 7 7 102 45 115 46
6 0 -6 -8 -25 -18z m-1440 -436 c-7 -8 -22 -15 -34 -14 -18 0 -16 3 9 14 39
18 40 18 25 0z m-639 -27 c-6 -17 -17 -23 -42 -24 -33 -1 -33 -1 -9 9 14 6 29
17 33 24 13 22 27 15 18 -9z m-39 -93 c-3 -5 -7 -4 -10 3 -5 15 -29 16 -38 0
-5 -7 -2 -9 7 -4 8 4 5 0 -5 -8 -24 -20 -36 -20 -36 -2 0 21 60 47 75 33 7 -7
10 -16 7 -22z m882 -76 c19 -9 29 -9 40 0 20 16 28 -1 16 -33 -5 -15 -17 -26
-28 -26 -10 0 -23 -5 -30 -12 -9 -9 -15 -8 -27 8 -17 23 -19 40 -5 49 6 4 8
11 5 16 -8 12 -1 11 29 -2z m-139 -109 c3 -5 -1 -10 -9 -10 -9 0 -16 5 -16 10
0 6 4 10 9 10 6 0 13 -4 16 -10z m-354 -30 c9 0 22 -6 28 -14 9 -11 2 -14 -36
-20 -25 -3 -49 -4 -51 -1 -3 3 4 5 16 5 19 0 20 3 11 28 -8 22 -8 25 2 15 7
-7 21 -13 30 -13z m107 -85 c11 -24 11 -25 -16 -19 -34 8 -46 19 -38 33 12 20
43 12 54 -14z m136 2 c17 -12 17 -14 -2 -37 -17 -21 -23 -23 -63 -14 -38 8
-44 13 -47 37 -3 26 -2 27 45 27 27 0 57 -6 67 -13z m89 -14 c13 -7 -13 -33
-33 -33 -17 0 -30 19 -30 41 0 8 43 3 63 -8z m90 -3 c25 -12 30 -12 38 1 7 12
9 11 9 -2 0 -19 -57 -46 -69 -33 -13 13 -25 57 -15 52 5 -2 22 -10 37 -18z
m119 -12 c-5 -20 -6 -20 -18 -3 -15 21 -10 37 10 29 8 -3 12 -14 8 -26z m818
-69 c0 -11 -4 -17 -10 -14 -5 3 -10 13 -10 21 0 8 5 14 10 14 6 0 10 -9 10
-21z m-1135 1 c3 -5 1 -10 -4 -10 -6 0 -11 5 -11 10 0 6 2 10 4 10 3 0 8 -4
11 -10z m-60 -130 c-3 -5 -13 -10 -21 -10 -8 0 -14 5 -14 10 0 6 9 10 21 10
11 0 17 -4 14 -10z m78 -685 c-3 -9 -8 -14 -10 -11 -3 3 -2 9 2 15 9 16 15 13
8 -4z m-65 -23 c2 -7 -3 -12 -12 -12 -9 0 -16 7 -16 16 0 17 22 14 28 -4z
m106 -53 l-7 -34 -12 27 c-8 22 -14 25 -23 16 -20 -20 -15 9 6 31 26 27 47 4
36 -40z m-152 -51 c-8 -8 -9 -4 -5 13 4 13 8 18 11 10 2 -7 -1 -18 -6 -23z
m-12 -202 c0 -3 -4 -8 -10 -11 -5 -3 -10 -1 -10 4 0 6 5 11 10 11 6 0 10 -2
10 -4z m58 -33 c-2 -12 -14 -19 -36 -21 -26 -3 -38 -11 -54 -38 -22 -38 -25
-39 -41 -21 -23 24 -17 37 26 55 23 10 53 23 67 30 35 15 42 14 38 -5z m189
-25 c-3 -8 -6 -5 -6 6 -1 11 2 17 5 13 3 -3 4 -12 1 -19z m-137 -23 c0 -12
-19 -12 -23 0 -4 9 -1 12 9 8 7 -3 14 -7 14 -8z m-2541 -9 c-14 -14 -112 -76
-128 -81 -26 -8 -186 -116 -184 -124 1 -4 -8 -8 -20 -8 -12 -1 -23 -7 -26 -14
-2 -6 -11 -19 -21 -29 -9 -9 -20 -24 -23 -34 -4 -9 -11 -15 -16 -11 -10 5 -66
-29 -96 -59 -9 -9 -25 -16 -35 -16 -10 0 -22 -4 -25 -10 -9 -14 -25 -12 -25 3
0 7 12 21 27 32 14 11 32 26 39 33 7 6 17 12 23 12 6 0 29 18 53 40 24 23 56
48 72 57 39 20 207 133 224 150 14 13 27 17 50 14 6 -1 12 3 12 8 0 14 50 40
79 41 13 0 22 -2 20 -4z m2491 0 c0 -3 -4 -8 -10 -11 -5 -3 -10 -1 -10 4 0 6
5 11 10 11 6 0 10 -2 10 -4z m-23 -152 c-3 -3 -12 -4 -19 -1 -8 3 -5 6 6 6 11
1 17 -2 13 -5z m57 -59 c-4 -8 -11 -12 -16 -9 -6 4 -5 10 3 15 19 12 19 11 13
-6z m-3229 -245 c-3 -5 -11 -10 -16 -10 -6 0 -7 5 -4 10 3 6 11 10 16 10 6 0
7 -4 4 -10z m-92 -225 c-3 -9 -8 -14 -10 -11 -3 3 -2 9 2 15 9 16 15 13 8 -4z
m-38 -112 c-6 -27 -20 -24 -28 7 -3 13 -1 18 6 13 6 -4 8 2 5 15 -4 12 -2 22
3 22 5 0 10 10 11 23 1 12 3 4 5 -17 3 -22 2 -50 -2 -63z m-63 -65 c-7 -7 -12
-19 -12 -28 0 -9 -9 -25 -20 -35 -11 -10 -20 -24 -20 -30 0 -7 -7 -18 -15 -25
-13 -11 -15 -10 -9 6 3 10 20 48 36 82 22 46 33 61 41 53 8 -8 8 -14 -1 -23z
m65 -65 c-3 -10 -5 -2 -5 17 0 19 2 27 5 18 2 -10 2 -26 0 -35z m0 -75 c-2
-13 -4 -5 -4 17 -1 22 1 32 4 23 2 -10 2 -28 0 -40z m-160 -150 c-3 -7 -5 -2
-5 12 0 14 2 19 5 13 2 -7 2 -19 0 -25z m173 -27 c0 -11 -4 -23 -10 -26 -6 -4
-10 5 -10 19 0 14 5 26 10 26 6 0 10 -9 10 -19z m-223 -17 c3 -9 1 -25 -5 -35
-7 -10 -12 -28 -12 -39 0 -11 -4 -20 -9 -20 -6 0 -9 25 -8 55 1 37 6 55 15 55
7 0 15 -7 19 -16z m210 -96 c-3 -7 -5 -2 -5 12 0 14 2 19 5 13 2 -7 2 -19 0
-25z m-21 -65 c-11 -21 -15 -23 -16 -10 0 24 22 65 27 50 2 -6 -3 -24 -11 -40z
m-21 -190 c-12 -67 -20 -30 -10 50 9 77 10 79 13 32 2 -27 1 -65 -3 -82z
m-302 35 c-7 -41 -22 -71 -23 -47 0 18 20 79 26 79 2 0 1 -15 -3 -32z m-13
-77 c0 -6 -4 -13 -10 -16 -5 -3 -10 1 -10 9 0 9 5 16 10 16 6 0 10 -4 10 -9z
m-13 -53 c-3 -8 -6 -5 -6 6 -1 11 2 17 5 13 3 -3 4 -12 1 -19z m332 -57 c1
-18 -12 -79 -29 -135 -16 -55 -31 -117 -33 -136 -2 -19 -11 -48 -20 -65 l-16
-30 -1 34 c0 18 9 61 20 95 57 176 72 238 66 274 -4 27 -3 31 4 17 5 -11 9
-35 9 -54z m-329 23 c0 -9 -5 -14 -12 -12 -18 6 -21 28 -4 28 9 0 16 -7 16
-16z m-24 -106 c-3 -13 -6 -30 -6 -37 0 -10 -3 -11 -9 -5 -12 11 -2 64 11 64
6 0 8 -10 4 -22z m6759 -38 c4 -6 -9 -10 -32 -9 -38 1 -38 1 -8 9 17 4 31 8
32 9 1 0 5 -3 8 -9z m-92 -7 c-7 -2 -21 -2 -30 0 -10 3 -4 5 12 5 17 0 24 -2
18 -5z m-140 -10 c-7 -2 -21 -2 -30 0 -10 3 -4 5 12 5 17 0 24 -2 18 -5z
m-605 -50 c-10 -2 -28 -2 -40 0 -13 2 -5 4 17 4 22 1 32 -1 23 -4z m-150 -14
c-12 -7 -24 -7 -35 0 -15 9 -12 10 17 10 29 0 32 -1 18 -10z m-70 -6 c-10 -2
-28 -2 -40 0 -13 2 -5 4 17 4 22 1 32 -1 23 -4z m-133 -13 c-28 -12 -45 -12
-45 0 0 6 15 10 33 9 27 0 29 -2 12 -9z m288 -17 c-7 -2 -19 -2 -25 0 -7 3 -2
5 12 5 14 0 19 -2 13 -5z m-360 -40 c-7 -2 -19 -2 -25 0 -7 3 -2 5 12 5 14 0
19 -2 13 -5z m-5603 -43 c0 -5 -5 -10 -11 -10 -5 0 -7 5 -4 10 3 6 8 10 11 10
2 0 4 -4 4 -10z m390 -150 c-10 -23 -10 -22 -5 9 3 18 6 45 7 60 1 19 2 16 5
-9 2 -20 -1 -47 -7 -60z m200 40 c0 -5 -5 -10 -11 -10 -5 0 -7 5 -4 10 3 6 8
10 11 10 2 0 4 -4 4 -10z m3110 0 c-8 -5 -24 -9 -35 -9 -16 1 -16 2 5 9 35 11
48 11 30 0z m-280 -10 c0 -5 -6 -10 -14 -10 -8 0 -18 5 -21 10 -3 6 3 10 14
10 12 0 21 -4 21 -10z m-3454 -16 c-3 -9 -6 -27 -6 -41 0 -35 -6 -27 -14 20
-6 30 -4 37 10 37 11 0 14 -5 10 -16z m64 -28 c0 -13 -7 -26 -14 -29 -10 -4
-13 -1 -10 9 2 7 6 21 9 29 7 23 15 18 15 -9z m530 10 c0 -3 -4 -8 -10 -11 -5
-3 -10 -1 -10 4 0 6 5 11 10 11 6 0 10 -2 10 -4z"/>
<path d="M6010 7509 c0 -5 5 -7 10 -4 6 3 10 8 10 11 0 2 -4 4 -10 4 -5 0 -10
-5 -10 -11z"/>
<path d="M4921 7364 c0 -11 3 -14 6 -6 3 7 2 16 -1 19 -3 4 -6 -2 -5 -13z"/>
<path d="M4555 5273 c-41 -21 -74 -52 -91 -85 -22 -43 -1 -33 33 15 22 32 44
49 84 64 39 16 47 22 29 22 -14 0 -38 -7 -55 -16z"/>
<path d="M4198 5248 c-9 -7 -18 -32 -20 -55 -3 -37 -1 -43 15 -43 11 0 16 -5
13 -12 -3 -7 -9 -21 -12 -30 -7 -20 -26 -24 -23 -5 1 6 1 19 0 27 -1 13 -2 13
-11 0 -7 -12 -12 -12 -22 -2 -9 9 -9 12 0 12 7 0 12 14 12 32 0 42 -17 25 -25
-24 -7 -43 9 -80 33 -77 33 3 42 -1 42 -18 1 -14 6 -11 27 12 22 25 24 31 10
33 -10 2 -17 13 -17 27 0 13 -4 26 -9 29 -5 3 -11 18 -14 33 -4 23 -3 25 7 11
10 -14 12 -10 13 23 2 44 3 43 -19 27z"/>
<path d="M4828 4573 c7 -3 16 -2 19 1 4 3 -2 6 -13 5 -11 0 -14 -3 -6 -6z"/>
<path d="M4947 4574 c-2 -3 -27 -8 -53 -10 -174 -19 -189 -23 -70 -18 112 4
161 14 139 27 -6 4 -13 4 -16 1z"/>
<path d="M4628 4543 c12 -2 32 -2 45 0 12 2 2 4 -23 4 -25 0 -35 -2 -22 -4z"/>
<path d="M6990 4994 c0 -8 5 -12 10 -9 6 3 10 10 10 16 0 5 -4 9 -10 9 -5 0
-10 -7 -10 -16z"/>
<path d="M5052 4228 c-19 -9 -22 -18 -20 -47 3 -42 21 -49 77 -33 20 6 48 14
64 17 38 8 34 20 -16 50 -47 27 -69 30 -105 13z"/>
<path d="M5061 4070 c9 -5 28 -6 45 0 27 8 26 8 -16 9 -32 0 -40 -2 -29 -9z"/>
<path d="M5130 4040 c0 -5 5 -10 11 -10 5 0 7 5 4 10 -3 6 -8 10 -11 10 -2 0
-4 -4 -4 -10z"/>
<path d="M5135 3990 c3 -5 10 -10 16 -10 5 0 9 5 9 10 0 6 -7 10 -16 10 -8 0
-12 -4 -9 -10z"/>
<path d="M5053 3983 c9 -2 25 -2 35 0 9 3 1 5 -18 5 -19 0 -27 -2 -17 -5z"/>
<path d="M5087 3959 c-9 -6 -15 -14 -13 -18 3 -4 -6 -20 -19 -35 -22 -25 -23
-30 -9 -43 11 -11 18 -13 26 -5 6 6 16 8 23 6 7 -3 16 0 21 7 5 9 2 10 -9 6
-13 -5 -16 -1 -14 13 5 31 17 37 33 16 15 -22 30 -16 21 9 -4 8 -18 15 -32 15
-14 0 -25 4 -25 10 0 16 62 4 72 -14 10 -18 28 -22 28 -5 0 5 -4 8 -9 5 -5 -3
-11 4 -14 15 -4 14 -11 20 -21 16 -8 -3 -18 -2 -21 3 -8 12 -15 12 -38 -1z"/>
<path d="M4740 3950 c-9 -6 -10 -10 -3 -10 6 0 15 5 18 10 8 12 4 12 -15 0z"/>
<path d="M5006 3953 c-26 -3 -35 -7 -27 -13 9 -5 0 -10 -28 -15 -40 -7 -69
-26 -34 -23 10 0 27 0 38 -1 17 -3 17 -4 -5 -11 l-25 -8 26 -1 c15 -1 32 6 39
14 11 13 8 15 -16 16 -23 1 -24 3 -7 6 23 4 106 43 88 41 -5 -1 -28 -3 -49 -5z"/>
<path d="M4660 3920 c0 -5 5 -10 10 -10 6 0 10 5 10 10 0 6 -4 10 -10 10 -5 0
-10 -4 -10 -10z"/>
<path d="M4766 3903 c-6 -14 -5 -15 5 -6 7 7 10 15 7 18 -3 3 -9 -2 -12 -12z"/>
<path d="M4728 3893 c7 -3 16 -2 19 1 4 3 -2 6 -13 5 -11 0 -14 -3 -6 -6z"/>
<path d="M4814 3881 c4 -5 1 -12 -4 -14 -6 -3 -5 -4 2 -3 15 3 23 26 8 26 -6
0 -9 -4 -6 -9z"/>
<path d="M4870 3880 c-12 -8 -10 -9 7 -7 12 2 26 6 29 10 11 11 -19 8 -36 -3z"/>
<path d="M4665 3869 c-3 -4 3 -7 12 -7 10 1 29 -2 42 -6 17 -6 22 -5 19 4 -4
14 -66 22 -73 9z"/>
<path d="M4850 3829 c0 -5 5 -7 10 -4 6 3 10 8 10 11 0 2 -4 4 -10 4 -5 0 -10
-5 -10 -11z"/>
<path d="M4688 3793 c6 -2 18 -2 25 0 6 3 1 5 -13 5 -14 0 -19 -2 -12 -5z"/>
<path d="M5010 2240 c0 -5 5 -10 11 -10 5 0 7 5 4 10 -3 6 -8 10 -11 10 -2 0
-4 -4 -4 -10z"/>
<path d="M5200 7710 c-13 -9 -13 -10 0 -10 8 0 22 5 30 10 13 9 13 10 0 10 -8
0 -22 -5 -30 -10z"/>
<path d="M5801 7614 c0 -11 3 -14 6 -6 3 7 2 16 -1 19 -3 4 -6 -2 -5 -13z"/>
<path d="M4840 7461 c0 -4 11 -6 25 -3 14 2 25 6 25 8 0 2 -11 4 -25 4 -14 0
-25 -4 -25 -9z"/>
<path d="M4716 7419 c-27 -16 -54 -36 -60 -42 -41 -44 -76 -90 -72 -94 6 -6
35 22 71 70 27 36 80 71 135 88 l25 7 -26 1 c-14 1 -47 -13 -73 -30z"/>
<path d="M6261 7384 c1 -21 16 -47 21 -38 4 5 0 18 -8 29 -8 10 -14 15 -13 9z"/>
<path d="M6610 7294 c0 -17 18 -36 30 -32 7 2 4 10 -9 22 -12 11 -21 15 -21
10z"/>
<path d="M4555 7241 c-9 -18 -14 -35 -12 -38 3 -2 10 5 17 16 6 12 15 21 21
21 6 0 8 -4 5 -9 -3 -5 11 -3 32 4 61 21 69 25 34 22 -18 -2 -35 1 -39 6 -3 5
-9 3 -14 -4 -8 -12 -10 -12 -18 0 -7 11 -13 7 -26 -18z"/>
<path d="M6680 7221 c0 -6 4 -13 10 -16 6 -3 7 1 4 9 -7 18 -14 21 -14 7z"/>
<path d="M4520 7176 c0 -9 5 -16 10 -16 6 0 10 4 10 9 0 6 -4 13 -10 16 -5 3
-10 -1 -10 -9z"/>
<path d="M4720 7161 c-12 -24 -13 -31 -1 -31 5 0 11 11 13 25 6 30 2 32 -12 6z"/>
<path d="M4486 7131 c-3 -4 -8 -28 -11 -52 -3 -24 -8 -57 -10 -74 -4 -22 -2
-26 5 -15 5 8 10 29 10 45 0 17 9 44 19 62 16 26 17 32 6 37 -8 3 -17 2 -19
-3z"/>
<path d="M4712 7108 c-15 -15 -16 -58 -1 -58 6 0 9 6 6 13 -2 6 0 20 5 30 12
23 6 31 -10 15z"/>
<path d="M6910 7116 c0 -2 7 -7 16 -10 8 -3 12 -2 9 4 -6 10 -25 14 -25 6z"/>
<path d="M6960 7097 c0 -2 14 -13 30 -25 17 -13 30 -19 30 -14 0 4 -13 16 -30
25 -16 10 -30 16 -30 14z"/>
<path d="M4681 7074 c0 -11 3 -14 6 -6 3 7 2 16 -1 19 -3 4 -6 -2 -5 -13z"/>
<path d="M6860 7029 c-12 -9 -12 -10 4 -5 11 4 27 -1 40 -11 l21 -18 -19 23
c-22 25 -25 26 -46 11z"/>
<path d="M4671 7014 c0 -11 3 -14 6 -6 3 7 2 16 -1 19 -3 4 -6 -2 -5 -13z"/>
<path d="M7091 6966 c12 -20 25 -36 31 -36 5 0 0 13 -12 30 -31 43 -43 47 -19
6z"/>
<path d="M7001 6965 c1 -19 18 -51 18 -35 0 8 -4 22 -9 30 -5 8 -9 11 -9 5z"/>
<path d="M7023 6875 c0 -22 2 -30 4 -17 2 12 2 30 0 40 -3 9 -5 -1 -4 -23z"/>
<path d="M7171 6814 c0 -11 3 -14 6 -6 3 7 2 16 -1 19 -3 4 -6 -2 -5 -13z"/>
<path d="M4340 6710 c-8 -5 -12 -12 -9 -15 4 -3 12 1 19 10 14 17 11 19 -10 5z"/>
<path d="M7106 6680 c4 -14 11 -41 15 -60 l7 -35 1 41 c1 23 -6 48 -15 60 -14
18 -15 18 -8 -6z"/>
<path d="M4375 6650 c-3 -5 -1 -10 4 -10 6 0 11 5 11 10 0 6 -2 10 -4 10 -3 0
-8 -4 -11 -10z"/>
<path d="M7150 6550 c-9 -16 -8 -18 5 -14 8 4 15 12 15 20 0 20 -7 17 -20 -6z"/>
<path d="M5785 6500 c3 -5 10 -10 16 -10 5 0 9 5 9 10 0 6 -7 10 -16 10 -8 0
-12 -4 -9 -10z"/>
<path d="M5750 6360 c0 -5 5 -10 10 -10 6 0 10 5 10 10 0 6 -4 10 -10 10 -5 0
-10 -4 -10 -10z"/>
<path d="M5801 6164 c0 -11 3 -14 6 -6 3 7 2 16 -1 19 -3 4 -6 -2 -5 -13z"/>
<path d="M5955 5711 c-3 -5 -1 -12 5 -16 5 -3 10 1 10 9 0 18 -6 21 -15 7z"/>
<path d="M4146 5619 c-4 -23 -5 -44 -2 -46 2 -2 7 14 11 37 4 23 5 43 2 46 -2
3 -7 -14 -11 -37z"/>
<path d="M4530 5650 c34 -11 60 -11 35 0 -11 5 -29 8 -40 8 -16 0 -15 -2 5 -8z"/>
<path d="M4531 5614 c0 -11 3 -14 6 -6 3 7 2 16 -1 19 -3 4 -6 -2 -5 -13z"/>
<path d="M5270 5560 c0 -5 5 -10 10 -10 6 0 10 5 10 10 0 6 -4 10 -10 10 -5 0
-10 -4 -10 -10z"/>
<path d="M4137 5481 c-4 -17 -3 -21 5 -13 5 5 8 16 6 23 -3 8 -7 3 -11 -10z"/>
<path d="M4011 5286 c-7 -8 -8 -16 -3 -18 5 -1 6 -31 2 -65 -4 -45 -2 -67 8
-80 13 -17 14 -16 9 7 -4 14 -3 58 1 98 8 72 5 84 -17 58z"/>
<path d="M3955 5232 c-4 -24 -5 -46 -2 -49 8 -7 20 63 14 79 -2 7 -7 -6 -12
-30z"/>
<path d="M3966 5171 c-6 -18 -10 -21 -17 -10 -15 24 -10 -69 5 -99 8 -15 23
-35 35 -46 32 -29 21 -130 -12 -109 -5 3 -7 1 -3 -5 3 -5 1 -12 -6 -14 -9 -3
-8 -14 4 -44 11 -29 15 -71 13 -164 l-2 -125 14 60 c8 33 12 68 9 78 -2 9 0
15 5 11 5 -3 9 6 9 20 0 13 4 36 10 50 5 14 12 62 15 106 5 61 3 80 -6 80 -10
0 -10 3 -1 12 20 20 15 76 -8 83 -11 3 -20 14 -20 23 0 14 -2 15 -10 2 -6 -10
-4 -20 7 -32 9 -10 13 -21 9 -26 -12 -11 -56 47 -56 74 0 14 5 34 11 45 5 11
9 28 7 37 -3 13 -6 12 -12 -7z"/>
<path d="M4031 5084 c0 -11 3 -14 6 -6 3 7 2 16 -1 19 -3 4 -6 -2 -5 -13z"/>
<path d="M3951 4482 c-17 -31 -13 -40 5 -14 9 13 14 26 11 29 -3 2 -10 -4 -16
-15z"/>
<path d="M3917 4376 c-3 -8 -2 -18 3 -21 13 -8 20 9 11 24 -6 10 -10 9 -14 -3z"/>
<path d="M3910 4324 c0 -8 5 -12 10 -9 6 3 10 10 10 16 0 5 -4 9 -10 9 -5 0
-10 -7 -10 -16z"/>
<path d="M4480 4080 c0 -5 4 -10 9 -10 6 0 13 5 16 10 3 6 -1 10 -9 10 -9 0
-16 -4 -16 -10z"/>
<path d="M4568 4023 c7 -3 16 -2 19 1 4 3 -2 6 -13 5 -11 0 -14 -3 -6 -6z"/>
<path d="M4527 3353 c-17 -16 -4 -23 41 -22 29 1 37 4 19 6 -15 2 -25 9 -22
14 7 10 -28 13 -38 2z"/>
<path d="M4570 3300 c-23 -7 -23 -8 -3 -9 12 -1 25 4 28 9 3 6 5 10 3 9 -2 -1
-14 -5 -28 -9z"/>
<path d="M4605 3160 c-3 -5 -17 -10 -31 -10 -13 0 -24 -4 -24 -9 0 -21 17 -19
46 4 16 13 26 24 22 25 -4 0 -10 -4 -13 -10z"/>
<path d="M4448 3073 c-23 -6 -23 -33 -1 -33 9 0 13 3 10 7 -4 3 -2 12 4 20 6
7 10 12 8 12 -2 -1 -12 -3 -21 -6z"/>
<path d="M4565 3070 c-3 -5 -1 -10 4 -10 6 0 11 5 11 10 0 6 -2 10 -4 10 -3 0
-8 -4 -11 -10z"/>
<path d="M4405 3040 c-3 -5 -1 -10 4 -10 6 0 11 5 11 10 0 6 -2 10 -4 10 -3 0
-8 -4 -11 -10z"/>
<path d="M4564 3035 c-10 -8 -14 -14 -9 -14 6 0 19 6 29 14 11 8 15 15 10 15
-6 0 -19 -7 -30 -15z"/>
<path d="M4265 3010 c-3 -5 1 -10 9 -10 9 0 16 5 16 10 0 6 -4 10 -9 10 -6 0
-13 -4 -16 -10z"/>
<path d="M4493 2995 c-46 -15 -51 -25 -8 -15 20 5 50 7 66 5 16 -2 27 0 24 4
-8 14 -48 17 -82 6z"/>
<path d="M4315 2980 c-3 -6 1 -7 9 -4 18 7 21 14 7 14 -6 0 -13 -4 -16 -10z"/>
<path d="M4568 2953 c-10 -2 -18 -9 -18 -14 0 -12 2 -12 41 6 33 14 18 19 -23
8z"/>
<path d="M5220 2956 c0 -2 7 -7 16 -10 8 -3 12 -2 9 4 -6 10 -25 14 -25 6z"/>
<path d="M5305 2910 c-3 -5 -1 -10 4 -10 6 0 11 5 11 10 0 6 -2 10 -4 10 -3 0
-8 -4 -11 -10z"/>
<path d="M4600 2900 c-8 -5 -10 -10 -5 -10 6 0 17 5 25 10 8 5 11 10 5 10 -5
0 -17 -5 -25 -10z"/>
<path d="M4555 2890 c-4 -6 -11 -8 -16 -5 -9 6 -39 -17 -39 -29 0 -4 11 -4 25
0 23 6 25 4 21 -20 -5 -28 0 -31 24 -16 13 9 13 10 0 10 -17 0 -21 36 -7 58 5
6 6 12 3 12 -3 0 -8 -5 -11 -10z"/>
<path d="M4394 2872 c8 -13 52 -21 68 -11 9 6 7 8 -7 7 -11 -1 -31 2 -44 6
-15 5 -21 4 -17 -2z"/>
<path d="M4620 2860 c-8 -5 -12 -11 -9 -14 2 -3 11 -1 19 4 8 5 12 11 9 14 -2
3 -11 1 -19 -4z"/>
<path d="M4659 2831 c-21 -5 -25 -10 -19 -25 6 -17 7 -18 13 -3 3 9 13 17 22
17 8 0 15 5 15 10 0 6 -1 9 -2 9 -2 -1 -15 -4 -29 -8z"/>
<path d="M4870 2830 c-8 -5 -10 -10 -5 -10 6 0 17 5 25 10 8 5 11 10 5 10 -5
0 -17 -5 -25 -10z"/>
<path d="M5165 2830 c3 -5 8 -10 11 -10 2 0 4 5 4 10 0 6 -5 10 -11 10 -5 0
-7 -4 -4 -10z"/>
<path d="M4612 2795 c0 -16 2 -22 5 -12 2 9 2 23 0 30 -3 6 -5 -1 -5 -18z"/>
<path d="M5117 2804 c-3 -5 1 -15 9 -22 16 -14 18 -5 5 17 -5 7 -11 9 -14 5z"/>
<path d="M5180 2781 c0 -25 6 -27 13 -6 4 8 2 17 -3 20 -6 4 -10 -3 -10 -14z"/>
<path d="M4962 2764 c-24 -28 -23 -47 1 -23 11 12 30 49 24 49 -1 0 -12 -12
-25 -26z"/>
<path d="M5020 2770 c0 -5 5 -10 10 -10 6 0 10 5 10 10 0 6 -4 10 -10 10 -5 0
-10 -4 -10 -10z"/>
<path d="M4286 2745 c4 -8 11 -15 16 -15 6 0 5 6 -2 15 -7 8 -14 15 -16 15 -2
0 -1 -7 2 -15z"/>
<path d="M4647 2732 c-9 -13 18 -47 37 -47 6 0 11 -7 11 -15 0 -8 12 -21 27
-28 23 -12 30 -12 50 3 l23 17 -24 -5 c-15 -4 -34 2 -52 15 -27 20 -28 23 -14
45 17 26 11 31 -11 8 -20 -20 -32 -19 -36 3 -3 12 -6 14 -11 4z"/>
<path d="M4530 2710 c-8 -5 -10 -10 -5 -10 6 0 17 5 25 10 8 5 11 10 5 10 -5
0 -17 -5 -25 -10z"/>
<path d="M4861 2624 c-1 -18 -7 -34 -15 -37 -19 -8 -40 18 -32 40 6 17 5 17
-8 1 -14 -19 -42 -25 -31 -8 3 5 0 7 -8 4 -7 -2 -14 -12 -14 -20 0 -9 6 -13
15 -9 10 3 12 0 8 -10 -3 -8 -1 -15 5 -15 5 0 20 -9 32 -21 42 -40 92 -51 84
-18 -3 12 -1 30 6 40 18 28 0 35 -22 8 -15 -18 -20 -20 -21 -8 0 8 4 19 8 25
5 5 6 20 1 34 -7 24 -7 23 -8 -6z"/>
<path d="M4635 2620 c-8 -13 15 -13 35 0 12 8 11 10 -7 10 -12 0 -25 -4 -28
-10z"/>
<path d="M5052 2610 c0 -14 2 -19 5 -12 2 6 2 18 0 25 -3 6 -5 1 -5 -13z"/>
<path d="M4520 2581 c0 -6 4 -12 8 -15 5 -3 9 1 9 9 0 8 -4 15 -9 15 -4 0 -8
-4 -8 -9z"/>
<path d="M4716 2544 c-17 -12 -17 -14 -4 -14 9 0 20 5 23 11 11 17 2 18 -19 3z"/>
<path d="M4790 2529 c0 -5 5 -7 10 -4 6 3 10 8 10 11 0 2 -4 4 -10 4 -5 0 -10
-5 -10 -11z"/>
<path d="M4450 2514 c0 -1 13 -9 29 -17 22 -11 28 -12 25 -2 -5 11 -54 29 -54
19z"/>
<path d="M4605 2500 c-3 -5 -2 -10 4 -10 5 0 13 5 16 10 3 6 2 10 -4 10 -5 0
-13 -4 -16 -10z"/>
<path d="M4618 2473 c7 -3 16 -2 19 1 4 3 -2 6 -13 5 -11 0 -14 -3 -6 -6z"/>
<path d="M4658 2463 c6 -2 18 -2 25 0 6 3 1 5 -13 5 -14 0 -19 -2 -12 -5z"/>
<path d="M4502 2441 c-11 -7 -10 -9 2 -14 9 -4 16 -13 16 -21 0 -8 5 -18 12
-22 7 -5 8 -3 3 6 -6 10 -2 11 19 6 15 -4 26 -2 26 4 0 10 -5 12 -32 14 -7 1
-18 9 -23 18 -7 11 -15 14 -23 9z"/>
<path d="M4662 2432 c-29 -5 -23 -26 9 -30 17 -2 20 0 10 6 -11 8 -11 10 0 14
21 8 7 14 -19 10z"/>
<path d="M4596 2392 c-7 -11 34 -45 43 -36 3 2 -4 14 -16 25 -13 13 -23 17
-27 11z"/>
<path d="M4757 2391 c-17 -6 -17 -9 -4 -19 12 -10 16 -9 21 4 8 21 6 23 -17
15z"/>
<path d="M4945 2390 c3 -5 18 -10 32 -10 32 0 28 5 -10 14 -19 4 -26 3 -22 -4z"/>
<path d="M4875 2383 c-11 -3 -25 -11 -30 -18 -6 -7 -22 -15 -35 -18 -22 -4
-21 -4 6 -6 17 0 37 6 44 14 7 8 18 15 26 15 7 0 16 5 19 10 6 10 3 11 -30 3z"/>
<path d="M4915 2359 c-4 -5 -14 -8 -24 -4 -10 4 -12 3 -6 -3 6 -5 24 -12 40
-15 17 -4 24 -4 17 -1 -6 3 -10 10 -7 14 3 5 1 11 -4 14 -5 4 -13 1 -16 -5z"/>
<path d="M4690 2345 c7 -8 16 -15 21 -15 5 0 6 7 3 15 -4 8 -13 15 -21 15 -13
0 -13 -3 -3 -15z"/>
<path d="M4670 2320 c0 -5 3 -10 8 -11 4 0 18 -2 32 -5 l25 -4 -25 15 c-30 17
-40 18 -40 5z"/>
<path d="M4727 2264 c8 -20 37 -34 52 -25 14 9 8 15 -32 30 -21 8 -25 8 -20
-5z"/>
<path d="M4820 2250 c0 -12 25 -30 40 -30 13 0 13 1 0 10 -13 9 -13 11 -1 19
10 7 7 9 -12 8 -15 -1 -27 -4 -27 -7z"/>
<path d="M4780 2201 c8 -6 18 -7 23 -4 5 3 18 -4 30 -14 19 -17 25 -18 47 -7
l25 14 -32 0 c-17 0 -35 5 -38 10 -3 6 -21 10 -38 10 -23 0 -28 -3 -17 -9z"/>
<path d="M1351 404 c0 -11 3 -14 6 -6 3 7 2 16 -1 19 -3 4 -6 -2 -5 -13z"/>
<path d="M6645 273 c-20 -11 -30 -12 -33 -4 -2 6 -10 11 -17 11 -14 0 -15 -17
-2 -37 4 -6 1 -14 -5 -16 -7 -3 28 -3 77 0 85 5 153 22 95 23 -20 0 -22 2 -10
10 13 8 12 10 -2 10 -10 0 -18 5 -18 10 0 15 -51 11 -85 -7z m5 -27 c0 -2 -9
-6 -20 -9 -11 -3 -20 -1 -20 4 0 5 9 9 20 9 11 0 20 -2 20 -4z"/>
<path d="M7900 280 c-80 -5 -190 -13 -245 -19 -55 -6 -165 -15 -243 -21 -79
-6 -163 -14 -185 -19 -23 -6 -114 -15 -202 -21 -88 -6 -176 -15 -195 -20 -19
-5 -102 -15 -185 -22 -134 -12 -144 -13 -90 -19 47 -4 52 -6 25 -9 -49 -5 -62
-4 -90 4 -24 7 -25 7 -5 -9 13 -11 31 -15 52 -11 25 3 31 1 26 -10 -3 -8 -13
-14 -22 -15 -11 0 -9 -3 7 -9 19 -8 21 -12 11 -28 -8 -12 -20 -18 -33 -16 -12
3 -15 2 -8 -2 6 -3 12 -13 12 -21 0 -14 14 -15 113 -9 146 10 155 11 163 19 4
4 -2 7 -14 7 -12 0 -22 5 -22 10 0 6 13 10 29 10 16 0 37 7 45 16 14 14 17 13
28 -10 6 -14 19 -26 30 -26 10 0 18 -7 18 -15 0 -13 25 -15 164 -15 122 0 166
3 169 13 4 9 6 9 6 0 1 -10 105 -13 487 -13 l486 0 -6 23 c-4 12 -15 67 -26
122 -11 55 -22 110 -25 123 -6 25 -7 25 -275 12z m-1090 -130 c-13 -9 -13 -12
3 -24 16 -12 15 -14 -13 -26 -16 -7 -30 -17 -30 -23 0 -6 -2 -8 -5 -5 -9 9 6
38 20 38 8 0 11 8 8 20 -4 15 -12 18 -37 15 -28 -4 -29 -4 -6 4 14 5 36 9 50
10 20 1 22 -1 10 -9z m-203 -52 c-3 -8 -6 -5 -6 6 -1 11 2 17 5 13 3 -3 4 -12
1 -19z"/>
<path d="M6210 226 c0 -9 40 -13 46 -5 3 5 -6 9 -20 9 -14 0 -26 -2 -26 -4z"/>
<path d="M6538 223 c6 -2 18 -2 25 0 6 3 1 5 -13 5 -14 0 -19 -2 -12 -5z"/>
<path d="M6420 216 c0 -9 40 -13 46 -5 3 5 -6 9 -20 9 -14 0 -26 -2 -26 -4z"/>
<path d="M6238 183 c7 -3 16 -2 19 1 4 3 -2 6 -13 5 -11 0 -14 -3 -6 -6z"/>
<path d="M6138 173 c7 -3 16 -2 19 1 4 3 -2 6 -13 5 -11 0 -14 -3 -6 -6z"/>
<path d="M4365 140 c-3 -6 1 -7 9 -4 18 7 21 14 7 14 -6 0 -13 -4 -16 -10z"/>
<path d="M3988 133 c12 -2 32 -2 45 0 12 2 2 4 -23 4 -25 0 -35 -2 -22 -4z"/>
<path d="M5108 133 c6 -2 18 -2 25 0 6 3 1 5 -13 5 -14 0 -19 -2 -12 -5z"/>
<path d="M5223 133 c9 -2 25 -2 35 0 9 3 1 5 -18 5 -19 0 -27 -2 -17 -5z"/>
<path d="M3640 120 l35 -7 -38 -2 c-23 0 -36 -5 -32 -11 4 -6 -44 -11 -137
-12 -221 -2 -227 -3 -220 -9 4 -3 120 -3 257 1 138 3 225 8 195 9 -38 2 -48 5
-32 9 39 12 29 27 -18 29 -43 1 -44 1 -10 -7z"/>
<path d="M5260 119 c-57 -5 -52 -6 42 -7 59 -1 109 1 111 6 6 8 -63 9 -153 1z"/>
<path d="M6285 120 c-35 -4 -46 -7 -27 -8 27 -2 32 -6 32 -26 0 -13 7 -26 15
-30 8 -3 15 -10 15 -16 0 -5 -7 -10 -15 -10 -27 0 -15 -17 16 -24 45 -9 49 -8
49 9 0 30 44 104 64 108 34 7 -83 4 -149 -3z"/>
<path d="M4530 100 c0 -5 14 -10 32 -10 36 0 35 4 -4 14 -17 4 -28 2 -28 -4z"/>
<path d="M5098 103 c6 -2 18 -2 25 0 6 3 1 5 -13 5 -14 0 -19 -2 -12 -5z"/>
<path d="M6085 100 c-27 -5 -76 -9 -107 -9 -35 -1 -58 -5 -58 -12 0 -6 7 -9
15 -5 8 3 15 1 15 -4 0 -5 -10 -11 -22 -13 -17 -3 -14 -5 10 -6 17 0 31 -4 31
-8 -6 -37 2 -43 56 -43 30 0 56 5 56 10 1 6 2 16 3 23 1 6 -3 15 -9 19 -5 4
24 9 65 10 72 2 71 2 -30 8 -69 4 -85 7 -48 8 31 1 60 7 63 12 3 6 17 7 30 4
13 -3 32 -1 42 5 15 8 11 10 -22 9 -22 0 -62 -4 -90 -8z"/>
<path d="M3930 88 c0 -10 111 -10 126 0 7 4 -19 7 -57 8 -38 0 -69 -3 -69 -8z"/>
<path d="M4228 93 c57 -2 147 -2 200 0 53 1 7 3 -103 3 -110 0 -154 -2 -97 -3z"/>
<path d="M3828 83 c12 -2 32 -2 45 0 12 2 2 4 -23 4 -25 0 -35 -2 -22 -4z"/>
<path d="M2943 73 c9 -2 25 -2 35 0 9 3 1 5 -18 5 -19 0 -27 -2 -17 -5z"/>
<path d="M3108 73 c12 -2 32 -2 45 0 12 2 2 4 -23 4 -25 0 -35 -2 -22 -4z"/>
<path d="M5636 69 c-110 -9 -138 -19 -53 -19 31 0 59 -4 62 -10 3 -5 16 -10
28 -9 20 1 20 2 -3 9 -24 7 -23 7 12 15 20 4 43 5 50 2 7 -3 2 -6 -11 -6 -16
-1 -21 -5 -15 -10 5 -6 28 -4 59 4 35 10 43 14 25 16 -24 1 -23 2 5 9 27 7 25
8 -15 7 -25 0 -89 -3 -144 -8z"/>
<path d="M5853 73 c9 -2 23 -2 30 0 6 3 -1 5 -18 5 -16 0 -22 -2 -12 -5z"/>
<path d="M5362 40 c31 -4 73 -4 95 0 27 6 12 8 -57 8 -85 -1 -89 -1 -38 -8z"/>
<path d="M6108 43 c7 -3 16 -2 19 1 4 3 -2 6 -13 5 -11 0 -14 -3 -6 -6z"/>
<path d="M4886 31 c-8 -12 48 -22 83 -15 16 4 32 1 35 -5 4 -6 18 -11 31 -11
18 0 23 4 19 15 -5 13 7 15 79 15 66 0 86 -3 91 -15 3 -8 17 -15 31 -15 18 0
25 5 25 20 0 19 -7 20 -194 20 -107 0 -197 -4 -200 -9z"/>
<path d="M5578 33 c6 -2 18 -2 25 0 6 3 1 5 -13 5 -14 0 -19 -2 -12 -5z"/>
<path d="M5808 33 c12 -2 30 -2 40 0 9 3 -1 5 -23 4 -22 0 -30 -2 -17 -4z"/>
<path d="M5893 33 c9 -2 25 -2 35 0 9 3 1 5 -18 5 -19 0 -27 -2 -17 -5z"/>
<path d="M4185 23 c-16 -2 -246 -8 -510 -12 l-480 -8 543 0 c298 0 542 3 542
7 0 4 19 4 42 0 24 -5 45 -7 49 -5 8 5 292 6 363 1 41 -3 66 0 80 10 18 12
-19 14 -289 12 -171 0 -323 -3 -340 -5z"/>
</g>
</svg>
